<svg xmlns="http://www.w3.org/2000/svg" xmlns:xlink="http://www.w3.org/1999/xlink" width="156.491" height="159.769" viewBox="0 0 156.491 159.769">
  <defs>
    <filter id="Path_502" x="0" y="0" width="136.201" height="149.118" filterUnits="userSpaceOnUse">
      <feOffset input="SourceAlpha"/>
      <feGaussianBlur stdDeviation="4" result="blur"/>
      <feFlood flood-color="#2ee2fe"/>
      <feComposite operator="in" in2="blur"/>
      <feComposite in="SourceGraphic"/>
    </filter>
    <filter id="Path_503" x="0.684" y="0.684" width="134.832" height="147.75" filterUnits="userSpaceOnUse">
      <feOffset input="SourceAlpha"/>
      <feGaussianBlur stdDeviation="4" result="blur-2"/>
      <feFlood flood-color="#2ee2fe"/>
      <feComposite operator="in" in2="blur-2"/>
      <feComposite in="SourceGraphic"/>
    </filter>
    <filter id="Path_504" x="1.112" y="1.112" width="133.978" height="146.895" filterUnits="userSpaceOnUse">
      <feOffset input="SourceAlpha"/>
      <feGaussianBlur stdDeviation="4" result="blur-3"/>
      <feFlood flood-color="#2ee2fe"/>
      <feComposite operator="in" in2="blur-3"/>
      <feComposite in="SourceGraphic"/>
    </filter>
    <filter id="Path_488" x="83.478" y="85.741" width="73.012" height="74.027" filterUnits="userSpaceOnUse">
      <feOffset input="SourceAlpha"/>
      <feGaussianBlur stdDeviation="3" result="blur-4"/>
      <feFlood flood-color="#f7f7f7"/>
      <feComposite operator="in" in2="blur-4"/>
      <feComposite in="SourceGraphic"/>
    </filter>
    <filter id="Path_489" x="84.457" y="86.509" width="71.056" height="72.491" filterUnits="userSpaceOnUse">
      <feOffset input="SourceAlpha"/>
      <feGaussianBlur stdDeviation="3" result="blur-5"/>
      <feFlood flood-color="#f7f7f7"/>
      <feComposite operator="in" in2="blur-5"/>
      <feComposite in="SourceGraphic"/>
    </filter>
    <filter id="Path_490" x="84.946" y="86.894" width="70.077" height="71.721" filterUnits="userSpaceOnUse">
      <feOffset input="SourceAlpha"/>
      <feGaussianBlur stdDeviation="3" result="blur-6"/>
      <feFlood flood-color="#f7f7f7"/>
      <feComposite operator="in" in2="blur-6"/>
      <feComposite in="SourceGraphic"/>
    </filter>
  </defs>
  <g id="Group_185326" data-name="Group 185326" transform="translate(-693.163 -944.812)">
    <g id="Group_185238" data-name="Group 185238" transform="translate(670.784 788.719)">
      <g transform="matrix(1, 0, 0, 1, 22.38, 156.09)" filter="url(#Path_502)">
        <path id="Path_502-2" data-name="Path 502" d="M90.645,293.212H90.49a220.411,220.411,0,0,1-46.658-5.047,12.035,12.035,0,0,1-9.43-12.555c.237-3.907.628-12.6,1.164-16.48.543-3.93,4.907-6.666,7.363-7.694,4.844-2.029,12.883-3.831,19.9-6.734,2.117-.876,4.3-1.779,6.463-2.629l1.029-4.589a1.284,1.284,0,0,1,1.022-.981q.689-.126,1.381-.242v-6.043l-.3-.31a11.976,11.976,0,0,1-3.331-7.181q-.112-1.135-.235-2.323a3.879,3.879,0,0,1-.557.047,2.752,2.752,0,0,1-2.168-.859,7.625,7.625,0,0,1-1.523-2.865,48.191,48.191,0,0,1-1.821-11.995,3.822,3.822,0,0,1,1.341-3.115,3.925,3.925,0,0,1,1.6-.819c-1.048-9.119-.907-16.908.416-22.591a1.29,1.29,0,0,1,.362-.636c9.774-9.345,26.573-12.279,37.45-6.535a1.289,1.289,0,0,1,.5.478l2.531,4.254a14.065,14.065,0,0,1,7.725,3.183,1.284,1.284,0,0,1,.515.864,76.184,76.184,0,0,1,.079,21,3.923,3.923,0,0,1,1.567.821,3.83,3.83,0,0,1,1.323,3.1,48.184,48.184,0,0,1-1.824,12,7.624,7.624,0,0,1-1.52,2.858,2.832,2.832,0,0,1-2.171.861,3.89,3.89,0,0,1-.557-.047c-.08.789-.159,1.564-.233,2.319a11.978,11.978,0,0,1-3.338,7.187l-.3.3v6.048q.69.117,1.38.242a1.281,1.281,0,0,1,1.022.981l1.009,4.5c2.39.922,4.8,1.906,7.13,2.862,6.868,2.813,14.6,4.572,19.289,6.562,2.429,1.031,6.745,3.771,7.287,7.635.533,3.8.929,12.433,1.178,16.315a12.136,12.136,0,0,1-9.6,12.623C127.446,289.936,108.808,293.212,90.645,293.212Zm-18.01-54.336-.992,4.423a1.284,1.284,0,0,1-.787.915c-2.345.911-4.736,1.9-7.049,2.857-6.834,2.828-15.467,4.8-20.438,6.891-1.758.739-4.873,2.7-5.262,5.519-.527,3.817-.912,12.442-1.146,16.285a9.482,9.482,0,0,0,7.423,9.895,217.754,217.754,0,0,0,46.108,4.988h.153c17.936,0,36.379-3.244,45.792-5.181A9.56,9.56,0,0,0,144,275.519c-.245-3.818-.635-12.388-1.158-16.124h0c-.387-2.769-3.472-4.731-5.211-5.468-4.811-2.04-12.8-3.847-19.8-6.711-2.53-1.036-5.144-2.107-7.716-3.088a1.279,1.279,0,0,1-.8-.917l-.972-4.334q-.785-.136-1.57-.26a1.282,1.282,0,0,1-1.081-1.266v-7.661a1.28,1.28,0,0,1,.366-.9l.663-.678a9.408,9.408,0,0,0,2.618-5.643c.13-1.32.273-2.7.421-4.114a1.282,1.282,0,0,1,2.254-.693,1.19,1.19,0,0,0,.965.182,5.275,5.275,0,0,0,.941-1.869,45.823,45.823,0,0,0,1.713-11.363,1.246,1.246,0,0,0-.434-1.04,1.334,1.334,0,0,0-1.111-.305,1.282,1.282,0,0,1-1.516-1.447,73.737,73.737,0,0,0,.185-21.12,11.091,11.091,0,0,0-6.571-2.414,1.282,1.282,0,0,1-1.055-.626l-2.693-4.524c-9.723-4.9-25.049-2.179-33.886,6.021-1.24,5.651-1.282,13.486-.118,22.7a1.282,1.282,0,0,1-1.536,1.415,1.32,1.32,0,0,0-1.119.3,1.242,1.242,0,0,0-.44,1.045,45.773,45.773,0,0,0,1.712,11.357,5.12,5.12,0,0,0,.99,1.917,1.324,1.324,0,0,0,.916-.225,1.3,1.3,0,0,1,1.36-.383,1.278,1.278,0,0,1,.894,1.076c.15,1.415.293,2.8.423,4.119a9.4,9.4,0,0,0,2.614,5.638l.668.684a1.284,1.284,0,0,1,.365.9v7.657a1.282,1.282,0,0,1-1.081,1.266Q73.42,238.74,72.635,238.876Z" transform="translate(-22.38 -156.09)" fill="#2ee2fe"/>
      </g>
      <g transform="matrix(1, 0, 0, 1, 22.38, 156.09)" filter="url(#Path_503)">
        <path id="Path_503-2" data-name="Path 503" d="M90.606,292.644A219.686,219.686,0,0,1,44.1,287.612,11.353,11.353,0,0,1,35.2,275.766c.234-3.89.625-12.562,1.159-16.427.5-3.634,4.533-6.164,6.8-7.115,4.878-2.043,12.991-3.857,20.041-6.776,1.981-.821,4.225-1.749,6.451-2.624l.417-.487,1.029-4.589a.6.6,0,0,1,.477-.458q.686-.126,1.371-.24l.57-.675v-6.043l-.194-.478-.3-.31a11.294,11.294,0,0,1-3.14-6.769c-.074-.757-.152-1.535-.234-2.326l-.786-.605a3.3,3.3,0,0,1-.461.038,2.092,2.092,0,0,1-1.648-.629,6.955,6.955,0,0,1-1.379-2.611,47.514,47.514,0,0,1-1.794-11.825,3.15,3.15,0,0,1,1.1-2.564,3.258,3.258,0,0,1,1.325-.676l.516-.742c-1.039-9.034-.9-16.765.4-22.357a.609.609,0,0,1,.17-.3,35.479,35.479,0,0,1,24.069-9.284,27.07,27.07,0,0,1,12.588,2.86.609.609,0,0,1,.236.225l2.531,4.253.533.332a13.353,13.353,0,0,1,7.375,3.054.6.6,0,0,1,.24.4,75.18,75.18,0,0,1,.079,20.816l.505.751a3.251,3.251,0,0,1,1.293.677,3.149,3.149,0,0,1,1.087,2.55,47.544,47.544,0,0,1-1.794,11.829,6.955,6.955,0,0,1-1.379,2.608,2.156,2.156,0,0,1-1.665.63,3.289,3.289,0,0,1-.445-.038l-.786.605q-.121,1.186-.233,2.323a11.288,11.288,0,0,1-3.147,6.774l-.3.3-.195.479v6.048l.57.675q.685.115,1.37.24a.6.6,0,0,1,.478.458l1.009,4.5.421.489c2.419.933,4.915,1.956,7.116,2.857,6.909,2.83,14.7,4.6,19.426,6.6,2.244.952,6.232,3.486,6.733,7.057.53,3.785.925,12.4,1.172,16.264a11.448,11.448,0,0,1-9.055,11.91c-9.468,1.949-28.058,5.219-46.173,5.219ZM70.058,218.02a.54.54,0,0,1,.17.027.6.6,0,0,1,.424.5c.15,1.413.293,2.793.423,4.114a10.088,10.088,0,0,0,2.8,6.049l.669.684a.6.6,0,0,1,.17.419v7.657a.6.6,0,0,1-.5.591q-.79.124-1.579.262l-.551.524-.992,4.423a.6.6,0,0,1-.368.427c-2.348.912-4.74,1.9-7.051,2.858-6.811,2.819-15.367,4.777-20.306,6.854-1.943.817-5.392,2.983-5.822,6.1-.528,3.828-.916,12.469-1.15,16.336a10.162,10.162,0,0,0,7.958,10.6,218.452,218.452,0,0,0,46.255,5h.154c18,0,36.5-3.255,45.93-5.195a10.248,10.248,0,0,0,8.1-10.661c-.246-3.831-.638-12.418-1.164-16.176-.428-3.061-3.841-5.23-5.764-6.045-4.779-2.026-12.7-3.821-19.662-6.672-2.546-1.042-5.159-2.113-7.731-3.093a.6.6,0,0,1-.372-.429l-.971-4.334-.551-.524c-.527-.091-1.052-.179-1.579-.262a.6.6,0,0,1-.5-.591V229.8a.6.6,0,0,1,.17-.419l.663-.678a10.089,10.089,0,0,0,2.809-6.055c.13-1.318.273-2.7.421-4.109a.6.6,0,0,1,1.052-.324,1.808,1.808,0,0,0,1.258.466,1.137,1.137,0,0,0,.551-.121l.2-.157a5.946,5.946,0,0,0,1.076-2.116,46.437,46.437,0,0,0,1.742-11.53,1.938,1.938,0,0,0-.671-1.59,2.031,2.031,0,0,0-1.321-.492,2,2,0,0,0-.363.034.569.569,0,0,1-.121.013.6.6,0,0,1-.591-.687,74.285,74.285,0,0,0,.186-21.309l-.284-.471a11.8,11.8,0,0,0-6.94-2.539.6.6,0,0,1-.492-.292l-2.692-4.524-.28-.262a25.936,25.936,0,0,0-11.6-2.512c-8.477,0-17.312,3.312-23.057,8.643l-.2.354c-1.256,5.725-1.3,13.653-.129,22.932a.6.6,0,0,1-.6.672.611.611,0,0,1-.124-.013,1.93,1.93,0,0,0-.393-.041,2.021,2.021,0,0,0-1.307.486,1.93,1.93,0,0,0-.681,1.6,46.406,46.406,0,0,0,1.741,11.529,5.783,5.783,0,0,0,1.131,2.167l.241.174a.993.993,0,0,0,.4.074,1.953,1.953,0,0,0,1.3-.474A.629.629,0,0,1,70.058,218.02Z" transform="translate(-22.5 -156.21)" fill="#93f4f9"/>
      </g>
      <g transform="matrix(1, 0, 0, 1, 22.38, 156.09)" filter="url(#Path_504)">
        <path id="Path_504-2" data-name="Path 504" d="M90.678,292.289a219.256,219.256,0,0,1-46.418-5.022,10.926,10.926,0,0,1-8.56-11.4c.234-3.88.623-12.54,1.156-16.394.477-3.449,4.3-5.849,6.453-6.752,4.9-2.052,13.062-3.875,20.131-6.8,1.97-.816,4.2-1.741,6.444-2.62l.169-.121.417-.487.092-.185,1.03-4.589a.168.168,0,0,1,.135-.13q.685-.127,1.366-.24l.256-.145.57-.675.1-.276V230.4l-.032-.162-.194-.477-.091-.138-.3-.311a10.858,10.858,0,0,1-3.02-6.512c-.075-.758-.154-1.536-.236-2.328l-.164-.295-.786-.605-.326-.084a3,3,0,0,1-.4.033,1.673,1.673,0,0,1-1.323-.486,6.544,6.544,0,0,1-1.288-2.451,47.122,47.122,0,0,1-1.777-11.72,2.726,2.726,0,0,1,.952-2.219,2.823,2.823,0,0,1,1.149-.587l.249-.171.516-.742.074-.292c-1.034-8.986-.9-16.668.395-22.212a.178.178,0,0,1,.049-.087,35.043,35.043,0,0,1,23.773-9.164,26.624,26.624,0,0,1,12.388,2.811.172.172,0,0,1,.068.065l2.531,4.252.141.144.533.333.193.062a12.979,12.979,0,0,1,7.157,2.973.172.172,0,0,1,.069.115,74.785,74.785,0,0,1,.078,20.7l.069.295.505.751.246.174a2.817,2.817,0,0,1,1.123.588,2.727,2.727,0,0,1,.939,2.207,47.2,47.2,0,0,1-1.775,11.721,6.556,6.556,0,0,1-1.291,2.451,1.754,1.754,0,0,1-1.349.486,3,3,0,0,1-.376-.033l-.325.084-.786.605-.165.3c-.08.791-.16,1.567-.233,2.325a10.854,10.854,0,0,1-3.026,6.516l-.3.3-.09.138-.195.478-.032.162v6.048l.1.276.57.675.256.145q.681.114,1.364.239a.174.174,0,0,1,.139.133l1.008,4.5.093.186.421.488.17.12c2.387.922,4.853,1.931,7.03,2.822,7,2.868,14.827,4.64,19.588,6.66,2.13.9,5.913,3.307,6.387,6.7.529,3.781.922,12.388,1.169,16.232a11.017,11.017,0,0,1-8.713,11.464c-9.453,1.947-28.009,5.211-46.087,5.211ZM70.169,218.525a.179.179,0,0,1,.131.135c.15,1.414.293,2.792.422,4.112a10.511,10.511,0,0,0,2.925,6.306l.668.684a.173.173,0,0,1,.049.12v7.657a.169.169,0,0,1-.143.168q-.794.124-1.586.262l-.222.112-.551.525-.123.216-.992,4.422a.166.166,0,0,1-.1.121c-2.4.932-4.876,1.957-7.062,2.862-6.781,2.807-15.3,4.761-20.216,6.828-2.06.866-5.717,3.161-6.172,6.462-.531,3.843-.919,12.495-1.153,16.368a10.588,10.588,0,0,0,8.292,11.047,218.815,218.815,0,0,0,46.346,5.014h.155c18.038,0,36.573-3.261,46.016-5.2a10.677,10.677,0,0,0,8.443-11.107c-.247-3.841-.639-12.439-1.168-16.208-.454-3.244-4.072-5.542-6.109-6.407-4.759-2.019-12.638-3.8-19.578-6.647-2.535-1.038-5.158-2.113-7.74-3.1a.167.167,0,0,1-.106-.123l-.972-4.334-.123-.216-.551-.525-.222-.112q-.793-.136-1.585-.262a.168.168,0,0,1-.143-.168v-7.661a.173.173,0,0,1,.049-.121l.663-.677a10.528,10.528,0,0,0,2.929-6.312c.129-1.317.272-2.7.421-4.106a.167.167,0,0,1,.121-.145l.04,0a.161.161,0,0,1,.139.055,2.247,2.247,0,0,0,1.584.617,1.562,1.562,0,0,0,.753-.172l.262-.2a6.267,6.267,0,0,0,1.22-2.325,46.883,46.883,0,0,0,1.759-11.636,2.354,2.354,0,0,0-.817-1.932,2.461,2.461,0,0,0-1.6-.6,2.4,2.4,0,0,0-.442.042h-.029a.175.175,0,0,1-.133-.045.171.171,0,0,1-.05-.147,74.7,74.7,0,0,0,.189-21.426l-.059-.166-.284-.47-.12-.129a12.182,12.182,0,0,0-7.17-2.618.164.164,0,0,1-.141-.083l-2.693-4.524-.075-.093-.28-.262-.1-.069a26.36,26.36,0,0,0-11.794-2.558c-8.581,0-17.527,3.356-23.347,8.758l-.08.1-.2.354-.047.121c-1.267,5.772-1.313,13.751-.136,23.076a.175.175,0,0,1-.054.147.179.179,0,0,1-.117.044,2.694,2.694,0,0,0-.517-.054,2.451,2.451,0,0,0-1.585.588,2.346,2.346,0,0,0-.829,1.942,46.843,46.843,0,0,0,1.759,11.636,6.212,6.212,0,0,0,1.22,2.325l.069.062.241.175.081.045a1.416,1.416,0,0,0,.572.109,2.4,2.4,0,0,0,1.619-.62.208.208,0,0,1,.145-.066A.127.127,0,0,1,70.169,218.525Z" transform="translate(-22.57 -156.28)" fill="#e4f4f4"/>
      </g>
    </g>
    <path id="Path_500" data-name="Path 500" d="M131.683,157.347H118.7l-1.671-8.308a20.573,20.573,0,0,1-4.775-2.783l-8.074,2.735-6.5-11.238,6.36-5.627a24.942,24.942,0,0,1-.224-2.757,25.26,25.26,0,0,1,.223-2.829l-6.359-5.626,6.5-11.238,8.074,2.735a20.573,20.573,0,0,1,4.775-2.783l1.671-8.308h12.987l1.671,8.308a20.765,20.765,0,0,1,4.773,2.784l8.076-2.736,6.487,11.238-6.349,5.625a23.468,23.468,0,0,1,.213,2.771v.048a23.468,23.468,0,0,1-.213,2.771l6.349,5.625L146.2,148.991l-8.076-2.736a20.73,20.73,0,0,1-4.773,2.784Z" transform="translate(687.963 938.234)" fill="#040819"/>
    <g id="Group_185236" data-name="Group 185236" transform="translate(-691 -159.419)">
      <g transform="matrix(1, 0, 0, 1, 1384.16, 1104.23)" filter="url(#Path_488)">
        <path id="Path_488-2" data-name="Path 488" d="M131.683,157.347H118.7l-1.671-8.308a20.573,20.573,0,0,1-4.775-2.783l-8.074,2.735-6.5-11.238,6.36-5.627a24.942,24.942,0,0,1-.224-2.757,25.26,25.26,0,0,1,.223-2.829l-6.359-5.626,6.5-11.238,8.074,2.735a20.573,20.573,0,0,1,4.775-2.783l1.671-8.308h12.987l1.671,8.308a20.765,20.765,0,0,1,4.773,2.784l8.076-2.736,6.487,11.238-6.349,5.625a23.468,23.468,0,0,1,.213,2.771v.048a23.468,23.468,0,0,1-.213,2.771l6.349,5.625L146.2,148.991l-8.076-2.736a20.73,20.73,0,0,1-4.773,2.784Zm-10.628-2.88h8.27l1.52-7.552.752-.279a17.871,17.871,0,0,0,5.314-3.1l.62-.524,7.361,2.493,4.131-7.156-5.779-5.12.137-.792a16.438,16.438,0,0,0,0-6.208l-.137-.792,5.779-5.12-4.131-7.156-7.361,2.493-.62-.524a17.87,17.87,0,0,0-5.314-3.1l-.752-.279-1.52-7.552h-8.27l-1.52,7.552-.752.279a17.7,17.7,0,0,0-5.311,3.1l-.622.527-7.362-2.494-4.139,7.156,5.788,5.119-.137.793a21.527,21.527,0,0,0-.305,3.139,21.749,21.749,0,0,0,.306,3.07l.135.792-5.787,5.118,4.139,7.156,7.362-2.494.622.527a17.7,17.7,0,0,0,5.311,3.1l.752.279Zm4.135-13.066a12.068,12.068,0,1,1,12.063-12.068,11.951,11.951,0,0,1-3.542,8.526h0A12.031,12.031,0,0,1,125.189,141.4Zm0-21.255a9.187,9.187,0,1,0,6.49,15.677l0,0a9.09,9.09,0,0,0,2.695-6.487A9.2,9.2,0,0,0,125.185,120.146Z" transform="translate(-5.2 -6.58)" fill="#c9c9c9"/>
      </g>
      <g transform="matrix(1, 0, 0, 1, 1384.16, 1104.23)" filter="url(#Path_489)">
        <path id="Path_489-2" data-name="Path 489" d="M119.366,156.611l-1.549-7.692-.457-.557a19.877,19.877,0,0,1-4.6-2.68l-.719-.122-7.478,2.534L98.7,137.944l5.891-5.21.252-.681a16.808,16.808,0,0,1,0-5.378l-.252-.68-5.89-5.209,5.87-10.149,7.478,2.534.719-.122a19.878,19.878,0,0,1,4.6-2.68l.457-.557,1.549-7.692h11.728l1.549,7.692.457.557a20.028,20.028,0,0,1,4.6,2.681l.718.122,7.479-2.534,5.86,10.149L145.874,126l-.252.679a17.645,17.645,0,0,1,0,5.382l.252.679,5.879,5.209-5.86,10.149-7.479-2.534-.718.122a20.027,20.027,0,0,1-4.6,2.681l-.457.557-1.549,7.692Zm.976-1.96.753.615h8.27l.753-.615,1.435-7.132.35-.131a18.642,18.642,0,0,0,5.542-3.233l.289-.245,6.951,2.355.911-.344,4.131-7.156-.156-.959-5.458-4.836.063-.369a17.194,17.194,0,0,0,0-6.472l-.063-.37,5.458-4.836.156-.959L145.6,112.81l-.911-.344-6.951,2.355-.288-.245a18.659,18.659,0,0,0-5.543-3.233l-.35-.131-1.435-7.132-.753-.615H121.1l-.753.615-1.435,7.132-.35.131a18.473,18.473,0,0,0-5.541,3.232l-.289.246-6.952-2.355-.911.344-4.139,7.156.156.96,5.466,4.834-.063.371a16.707,16.707,0,0,0,0,6.472l.062.37-5.466,4.834-.156.96,4.139,7.156.911.344,6.952-2.355.289.246a18.473,18.473,0,0,0,5.541,3.232l.35.131Zm4.885-13.985a11.3,11.3,0,1,1,11.3-11.3,11.328,11.328,0,0,1-11.3,11.3Zm0-21.256a9.955,9.955,0,1,0,7.032,16.988,9.851,9.851,0,0,0,2.923-7.032A9.967,9.967,0,0,0,125.225,119.41Z" transform="translate(-5.24 -6.61)" fill="#e9e9e9"/>
      </g>
      <g transform="matrix(1, 0, 0, 1, 1384.16, 1104.23)" filter="url(#Path_490)">
        <path id="Path_490-2" data-name="Path 490" d="M119.7,156.242l-1.485-7.383-.081-.168-.458-.557-.149-.11a19.484,19.484,0,0,1-4.508-2.629l-.173-.076-.719-.122-.186.014-7.18,2.432-5.555-9.6,5.656-5,.106-.156.252-.681.02-.185a16.447,16.447,0,0,1,0-5.272l-.02-.185-.252-.68-.106-.156-5.655-5,5.555-9.6,7.18,2.432.186.014.719-.122.173-.076a19.483,19.483,0,0,1,4.508-2.629l.149-.11.458-.557.081-.168,1.485-7.383h11.1l1.485,7.383.081.168.458.557.148.11a19.628,19.628,0,0,1,4.508,2.63l.172.076.718.122.187-.014,7.181-2.433,5.545,9.6-5.645,5-.1.155-.252.679-.02.186a17.281,17.281,0,0,1,0,5.276l.02.186.252.679.1.155,5.645,5-5.545,9.6-7.181-2.433-.187-.014-.718.122-.172.076a19.627,19.627,0,0,1-4.508,2.63l-.148.11-.458.557-.081.168-1.485,7.383Zm.286-1.5.133.221.753.616.243.087h8.27l.243-.087.753-.616.133-.221,1.394-6.923.15-.056a19.007,19.007,0,0,0,5.655-3.3l.125-.1,6.745,2.284.257,0,.911-.344.2-.167,4.13-7.156.046-.253-.156-.959-.124-.227-5.3-4.693.027-.158a17.618,17.618,0,0,0,0-6.6l-.028-.159,5.3-4.693.124-.227.156-.959-.046-.253-4.13-7.156-.2-.167-.911-.344-.257,0-6.745,2.284-.123-.1a19.023,19.023,0,0,0-5.656-3.3l-.15-.056-1.394-6.923-.133-.221-.753-.616-.243-.087h-8.27l-.243.087-.753.616-.133.221-1.394,6.923-.15.056a18.841,18.841,0,0,0-5.655,3.3l-.124.1-6.746-2.284-.257,0-.912.344-.2.167-4.139,7.156-.046.253.156.96.125.227,5.306,4.692-.028.159a22.552,22.552,0,0,0-.321,3.308,22.937,22.937,0,0,0,.322,3.294l.027.158-5.306,4.692-.125.227-.156.96.046.253,4.139,7.156.2.167.912.344.257,0,6.746-2.284.124.1a18.841,18.841,0,0,0,5.655,3.3l.15.056Zm5.26-14.446a10.915,10.915,0,1,1,10.915-10.915A10.94,10.94,0,0,1,125.247,140.3Zm0-21.256a10.34,10.34,0,1,0,7.3,17.644,10.235,10.235,0,0,0,3.037-7.3A10.353,10.353,0,0,0,125.246,119.041Z" transform="translate(-5.26 -6.63)" fill="#e9ffff"/>
      </g>
    </g>
  </g>
</svg>
