<svg xmlns="http://www.w3.org/2000/svg" xmlns:xlink="http://www.w3.org/1999/xlink" width="160.485" height="153.769" viewBox="0 0 160.485 153.769">
  <defs>
    <filter id="Path_509" x="9.271" y="90.182" width="141.932" height="18.216" filterUnits="userSpaceOnUse">
      <feOffset input="SourceAlpha"/>
      <feGaussianBlur stdDeviation="2.5" result="blur"/>
      <feFlood flood-color="#00d5ff" flood-opacity="0.71"/>
      <feComposite operator="in" in2="blur"/>
      <feComposite in="SourceGraphic"/>
    </filter>
    <filter id="Path_510" x="0" y="0" width="160.485" height="153.769" filterUnits="userSpaceOnUse">
      <feOffset input="SourceAlpha"/>
      <feGaussianBlur stdDeviation="2.5" result="blur-2"/>
      <feFlood flood-color="#00d5ff" flood-opacity="0.71"/>
      <feComposite operator="in" in2="blur-2"/>
      <feComposite in="SourceGraphic"/>
    </filter>
    <filter id="Path_244-2" x="56.434" y="0.157" width="47.442" height="51.039" filterUnits="userSpaceOnUse">
      <feOffset input="SourceAlpha"/>
      <feGaussianBlur stdDeviation="2.5" result="blur-3"/>
      <feFlood flood-color="#00d5ff" flood-opacity="0.71"/>
      <feComposite operator="in" in2="blur-3"/>
      <feComposite in="SourceGraphic"/>
    </filter>
    <filter id="Path_511" x="56.749" y="0.472" width="46.811" height="50.409" filterUnits="userSpaceOnUse">
      <feOffset input="SourceAlpha"/>
      <feGaussianBlur stdDeviation="2.5" result="blur-4"/>
      <feFlood flood-color="#00d5ff" flood-opacity="0.71"/>
      <feComposite operator="in" in2="blur-4"/>
      <feComposite in="SourceGraphic"/>
    </filter>
    <filter id="Path_512" x="30.848" y="97.507" width="112.986" height="55.786" filterUnits="userSpaceOnUse">
      <feOffset input="SourceAlpha"/>
      <feGaussianBlur stdDeviation="2.5" result="blur-5"/>
      <feFlood flood-color="#00d5ff" flood-opacity="0.71"/>
      <feComposite operator="in" in2="blur-5"/>
      <feComposite in="SourceGraphic"/>
    </filter>
    <filter id="Path_513" x="79.615" y="97.317" width="44.967" height="27.343" filterUnits="userSpaceOnUse">
      <feOffset input="SourceAlpha"/>
      <feGaussianBlur stdDeviation="2.5" result="blur-6"/>
      <feFlood flood-color="#00d5ff" flood-opacity="0.71"/>
      <feComposite operator="in" in2="blur-6"/>
      <feComposite in="SourceGraphic"/>
    </filter>
    <filter id="Path_514" x="18.369" y="111.565" width="62.644" height="39.641" filterUnits="userSpaceOnUse">
      <feOffset input="SourceAlpha"/>
      <feGaussianBlur stdDeviation="2.5" result="blur-7"/>
      <feFlood flood-color="#00d5ff" flood-opacity="0.71"/>
      <feComposite operator="in" in2="blur-7"/>
      <feComposite in="SourceGraphic"/>
    </filter>
    <filter id="Path_248-2" x="132.232" y="87.558" width="21.528" height="23.43" filterUnits="userSpaceOnUse">
      <feOffset input="SourceAlpha"/>
      <feGaussianBlur stdDeviation="2.5" result="blur-8"/>
      <feFlood flood-color="#00d5ff" flood-opacity="0.71"/>
      <feComposite operator="in" in2="blur-8"/>
      <feComposite in="SourceGraphic"/>
    </filter>
    <filter id="Path_515" x="132.546" y="87.875" width="20.899" height="22.798" filterUnits="userSpaceOnUse">
      <feOffset input="SourceAlpha"/>
      <feGaussianBlur stdDeviation="2.5" result="blur-9"/>
      <feFlood flood-color="#00d5ff" flood-opacity="0.71"/>
      <feComposite operator="in" in2="blur-9"/>
      <feComposite in="SourceGraphic"/>
    </filter>
    <filter id="Path_516" x="77.086" y="34.443" width="82.92" height="83.344" filterUnits="userSpaceOnUse">
      <feOffset input="SourceAlpha"/>
      <feGaussianBlur stdDeviation="2.5" result="blur-10"/>
      <feFlood flood-color="#00d5ff" flood-opacity="0.71"/>
      <feComposite operator="in" in2="blur-10"/>
      <feComposite in="SourceGraphic"/>
    </filter>
    <filter id="Path_250-2" x="0.169" y="34.114" width="83.379" height="83.989" filterUnits="userSpaceOnUse">
      <feOffset input="SourceAlpha"/>
      <feGaussianBlur stdDeviation="2.5" result="blur-11"/>
      <feFlood flood-color="#00d5ff" flood-opacity="0.71"/>
      <feComposite operator="in" in2="blur-11"/>
      <feComposite in="SourceGraphic"/>
    </filter>
    <filter id="Path_517" x="0.489" y="34.429" width="82.744" height="83.358" filterUnits="userSpaceOnUse">
      <feOffset input="SourceAlpha"/>
      <feGaussianBlur stdDeviation="2.5" result="blur-12"/>
      <feFlood flood-color="#00d5ff" flood-opacity="0.71"/>
      <feComposite operator="in" in2="blur-12"/>
      <feComposite in="SourceGraphic"/>
    </filter>
    <filter id="Path_251-2" x="6.71" y="87.56" width="21.536" height="23.427" filterUnits="userSpaceOnUse">
      <feOffset input="SourceAlpha"/>
      <feGaussianBlur stdDeviation="2.5" result="blur-13"/>
      <feFlood flood-color="#00d5ff" flood-opacity="0.71"/>
      <feComposite operator="in" in2="blur-13"/>
      <feComposite in="SourceGraphic"/>
    </filter>
    <filter id="Path_518" x="7.025" y="87.877" width="20.906" height="22.796" filterUnits="userSpaceOnUse">
      <feOffset input="SourceAlpha"/>
      <feGaussianBlur stdDeviation="2.5" result="blur-14"/>
      <feFlood flood-color="#00d5ff" flood-opacity="0.71"/>
      <feComposite operator="in" in2="blur-14"/>
      <feComposite in="SourceGraphic"/>
    </filter>
    <filter id="Path_252-2" x="57.138" y="0.852" width="46.044" height="49.651" filterUnits="userSpaceOnUse">
      <feOffset input="SourceAlpha"/>
      <feGaussianBlur stdDeviation="2.5" result="blur-15"/>
      <feFlood flood-color="#00d5ff" flood-opacity="0.71"/>
      <feComposite operator="in" in2="blur-15"/>
      <feComposite in="SourceGraphic"/>
    </filter>
    <filter id="Path_519" x="57.243" y="0.957" width="45.834" height="49.442" filterUnits="userSpaceOnUse">
      <feOffset input="SourceAlpha"/>
      <feGaussianBlur stdDeviation="2.5" result="blur-16"/>
      <feFlood flood-color="#00d5ff" flood-opacity="0.71"/>
      <feComposite operator="in" in2="blur-16"/>
      <feComposite in="SourceGraphic"/>
    </filter>
    <filter id="Path_520" x="31.332" y="97.988" width="112.019" height="54.834" filterUnits="userSpaceOnUse">
      <feOffset input="SourceAlpha"/>
      <feGaussianBlur stdDeviation="2.5" result="blur-17"/>
      <feFlood flood-color="#00d5ff" flood-opacity="0.71"/>
      <feComposite operator="in" in2="blur-17"/>
      <feComposite in="SourceGraphic"/>
    </filter>
    <filter id="Path_521" x="80.12" y="97.797" width="43.981" height="26.384" filterUnits="userSpaceOnUse">
      <feOffset input="SourceAlpha"/>
      <feGaussianBlur stdDeviation="2.5" result="blur-18"/>
      <feFlood flood-color="#00d5ff" flood-opacity="0.71"/>
      <feComposite operator="in" in2="blur-18"/>
      <feComposite in="SourceGraphic"/>
    </filter>
    <filter id="Path_522" x="18.855" y="112.025" width="61.677" height="38.712" filterUnits="userSpaceOnUse">
      <feOffset input="SourceAlpha"/>
      <feGaussianBlur stdDeviation="2.5" result="blur-19"/>
      <feFlood flood-color="#00d5ff" flood-opacity="0.71"/>
      <feComposite operator="in" in2="blur-19"/>
      <feComposite in="SourceGraphic"/>
    </filter>
    <filter id="Path_256-2" x="132.929" y="88.243" width="20.138" height="22.051" filterUnits="userSpaceOnUse">
      <feOffset input="SourceAlpha"/>
      <feGaussianBlur stdDeviation="2.5" result="blur-20"/>
      <feFlood flood-color="#00d5ff" flood-opacity="0.71"/>
      <feComposite operator="in" in2="blur-20"/>
      <feComposite in="SourceGraphic"/>
    </filter>
    <filter id="Path_523" x="133.034" y="88.349" width="19.927" height="21.84" filterUnits="userSpaceOnUse">
      <feOffset input="SourceAlpha"/>
      <feGaussianBlur stdDeviation="2.5" result="blur-21"/>
      <feFlood flood-color="#00d5ff" flood-opacity="0.71"/>
      <feComposite operator="in" in2="blur-21"/>
      <feComposite in="SourceGraphic"/>
    </filter>
    <filter id="Path_524" x="77.56" y="34.921" width="81.957" height="82.376" filterUnits="userSpaceOnUse">
      <feOffset input="SourceAlpha"/>
      <feGaussianBlur stdDeviation="2.5" result="blur-22"/>
      <feFlood flood-color="#00d5ff" flood-opacity="0.71"/>
      <feComposite operator="in" in2="blur-22"/>
      <feComposite in="SourceGraphic"/>
    </filter>
    <filter id="Path_258-2" x="0.864" y="34.812" width="81.992" height="82.596" filterUnits="userSpaceOnUse">
      <feOffset input="SourceAlpha"/>
      <feGaussianBlur stdDeviation="2.5" result="blur-23"/>
      <feFlood flood-color="#00d5ff" flood-opacity="0.71"/>
      <feComposite operator="in" in2="blur-23"/>
      <feComposite in="SourceGraphic"/>
    </filter>
    <filter id="Path_525" x="0.967" y="34.916" width="81.783" height="82.387" filterUnits="userSpaceOnUse">
      <feOffset input="SourceAlpha"/>
      <feGaussianBlur stdDeviation="2.5" result="blur-24"/>
      <feFlood flood-color="#00d5ff" flood-opacity="0.71"/>
      <feComposite operator="in" in2="blur-24"/>
      <feComposite in="SourceGraphic"/>
    </filter>
  </defs>
  <g id="Group_185241" data-name="Group 185241" transform="translate(-1119.5 -1115.553)">
    <g transform="matrix(1, 0, 0, 1, 1119.5, 1115.55)" filter="url(#Path_509)">
      <path id="Path_509-2" data-name="Path 509" d="M84.759,286.024a2.2,2.2,0,0,0-.348,1.628,1.978,1.978,0,0,0,.758,1.524l.318-.068a2.72,2.72,0,0,0,.281-1.625,2.155,2.155,0,0,0-.7-1.5l-.32.261Zm-125.235-.058a2.774,2.774,0,0,0-.621,1.524,1.984,1.984,0,0,0,.414,1.663h.325a2.774,2.774,0,0,0,.622-1.523,1.967,1.967,0,0,0-.421-1.67l-.322.263Z" transform="translate(57.91 -188.28)" fill="#00d5ff"/>
    </g>
    <g transform="matrix(1, 0, 0, 1, 1119.5, 1115.55)" filter="url(#Path_510)">
      <path id="Path_510-2" data-name="Path 510" d="M67.334,338.98c-3.775,0-8.321-.939-13.9-2.871C45.63,333.393,6.044,315.3,4.362,314.533L4.24,314.5c-23.824-.7-23.824-3.1-23.824-4.246,0-3.858,4.842-4.849,9.114-5.725a23.016,23.016,0,0,0,6.312-1.853,24.294,24.294,0,0,0,3.329-2.445c1.785-1.48,3.636-3.014,6.467-3.014a9.608,9.608,0,0,1,1.715.166c2.853.524,4.538,4.045,5.287,6.1l.089.128.154.134.142.072c4.1.872,18.363,3.884,29.88,6.048s13.749,5.877,15.089,8.1a6.312,6.312,0,0,0,.663.97,1.23,1.23,0,0,1,.032,1.745,1.206,1.206,0,0,1-1.707,0,7.322,7.322,0,0,1-1.043-1.443c-1.214-2.007-3.037-5.023-13.478-6.993-13.319-2.505-30.194-6.11-30.906-6.263a1.2,1.2,0,0,1-.908-.841c-.476-1.619-2.014-5.059-3.725-5.372a7.045,7.045,0,0,0-1.275-.124c-1.966,0-3.211,1.032-4.932,2.462a26.657,26.657,0,0,1-3.595,2.639,24.183,24.183,0,0,1-7.057,2.154l-.174.036c-2.652.548-5.657,1.169-6.661,2.343l-.065.291.095.337.207.216c3.056.98,13.163,1.742,21.121,1.962a1.187,1.187,0,0,1,.467.11c.413.188,41.483,18.963,49.183,21.634,5.289,1.833,9.711,2.763,13.145,2.763,3.514,0,5.979-.991,7.328-2.942A12.218,12.218,0,0,0,73.222,317.8a25.36,25.36,0,0,0-9.367-6.033,1.223,1.223,0,0,1-.815-1.525,1.207,1.207,0,0,1,1.154-.847,1.255,1.255,0,0,1,.325.044,27.364,27.364,0,0,1,10.416,6.651A14.593,14.593,0,0,1,76.7,335.007C74.874,337.644,71.724,338.98,67.334,338.98Zm-84.528-2.044c-6.257,0-11.336-2.316-13.257-6.043-2.662-5.167-2.7-13.347,5.962-19.392a1.191,1.191,0,0,1,.621-.171,1.2,1.2,0,0,1,1.024.567,1.2,1.2,0,0,1-.283,1.6c-7.356,5.132-7.5,11.783-5.174,16.294,1.452,2.822,5.966,4.717,11.231,4.717a19.453,19.453,0,0,0,6.719-1.151c5.647-2.1,19.29-7.836,24.894-10.2l.32-.135a1.191,1.191,0,0,1,.472-.1,1.208,1.208,0,0,1,.472,2.32l-.475.2c-6.939,2.933-19.392,8.157-24.837,10.181a22.287,22.287,0,0,1-7.685,1.317ZM57.3,310.352a1.2,1.2,0,0,1-.162-2.4l.149-.062.229-.177.089-.11a1.559,1.559,0,0,0-.144-1.26c-.666-1.6-6.894-2.339-10.895-2.339-.5,0-1.006.011-1.5.032-.1.006-.191.009-.28.009-1.59,0-3.03-.98-4.554-2.018l-.107-.073a17,17,0,0,0-4.3-2.345,2.768,2.768,0,0,0-.842-.138c-2.237,0-3.394,2.906-3.442,3.031a1.205,1.205,0,0,1-1.124.764,1.211,1.211,0,0,1-1.134-1.628c.648-1.709,2.56-4.605,5.614-4.605a5.406,5.406,0,0,1,1.647.27,18.784,18.784,0,0,1,4.925,2.647,7.717,7.717,0,0,0,3.347,1.663l.342,0c.284-.007.749-.019,1.357-.019,2.715,0,11.692.274,13.166,3.806a3.76,3.76,0,0,1,.031,3.5,3.129,3.129,0,0,1-2.274,1.444A.994.994,0,0,1,57.3,310.352Zm-94.733-6.887a9.505,9.505,0,0,1-5.14-1.179c-3.791-2.443-8.13-5.988-7.265-9.015.534-1.867,3.556-7.6,6.375-8.245a3.96,3.96,0,0,1,.619-.047,3.946,3.946,0,0,1,3.086,1.476l.2.114.28.042.224-.05A3.273,3.273,0,0,1-37.254,286a7.245,7.245,0,0,1,2.963,1.151,11.86,11.86,0,0,0,3.881,1.565,1.074,1.074,0,0,0,.3-.038c1.989-1.16,12.97-8.672,15.758-11.464,1.337-1.329,3.942-8.418,6.24-14.671l.038-.1C-5.236,254.707-3.566,250.27-2.3,249c1.862-1.859,5.366-3.2,9.423-4.752,1.736-.662,3.426-1.311,5.022-2,4.115-1.787,4.237-2.465,4.2-5.766l-.047-.163-.115-.185-.126-.115c-5.916-3.008-9.738-9.718-9.738-17.093,0-10.318,7.351-18.712,16.388-18.712s16.388,8.394,16.388,18.712c0,7.382-3.826,14.092-9.746,17.093l-.126.116-.115.187-.046.164c-.015,3.317.281,3.98,4.374,5.757,1.613.694,3.282,1.335,4.9,1.953l.156.06c4.045,1.548,7.539,2.884,9.4,4.738,1.272,1.278,2.941,5.713,5.781,13.444l.042.115c2.3,6.251,4.9,13.33,6.239,14.66C62.733,280,73.694,287.5,75.6,288.628a1.066,1.066,0,0,0,.435.095,11.164,11.164,0,0,0,3.7-1.508l.111-.061a7.3,7.3,0,0,1,3.063-1.168,3.278,3.278,0,0,1,1.727.566l.225.049.282-.043.2-.115a3.922,3.922,0,0,1,3.731-1.42c2.754.627,5.831,6.431,6.345,8.239.864,3.026-3.475,6.574-7.266,9.019a9.441,9.441,0,0,1-5.1,1.178c-5.975,0-13.288-2.935-14.1-3.271-3.8-1.571-14.579-8.775-17.48-11.678-1.93-1.932-6.847-11-9.605-16.236l-.333-.164-.394.068-.259.265c-.563,3.809-1.426,10.619-.892,13.425a57.441,57.441,0,0,0,2.442,8.637,1.2,1.2,0,0,1-.02.932,1.19,1.19,0,0,1-.669.638,1.175,1.175,0,0,1-.436.083,1.22,1.22,0,0,1-1.127-.773,58.685,58.685,0,0,1-2.561-9.061c-.961-5.014,1.626-18.859,1.736-19.445a1.21,1.21,0,0,1,1.186-.99,1.24,1.24,0,0,1,.223.021,1.2,1.2,0,0,1,.853.638c3.5,6.859,9.732,18.422,11.561,20.248,2.426,2.433,12.982,9.623,16.7,11.156,3.731,1.546,9.271,3.106,13.231,3.106a7,7,0,0,0,3.739-.815c4.2-2.7,6.335-5.185,6.271-6.238-.5-1.8-3.135-6.189-4.575-6.637l-.11-.015a1.391,1.391,0,0,0-.938.385l-.095.222,0,.3.093.225a5.023,5.023,0,0,1,1.449,3.109,5.225,5.225,0,0,1-.543,3.04A3.109,3.109,0,0,1,86,296.344c-.084.008-.181.014-.279.014a2.959,2.959,0,0,1-1.892-.689,4.88,4.88,0,0,1-1.686-3.312,5.259,5.259,0,0,1,.45-2.857l-.066-.361-.288-.277-.364-.053c-.3.156-.635.333-.921.487-1.514.806-3.4,1.809-5.015,1.809a3.008,3.008,0,0,1-1.572-.407c-2.094-1.241-13.136-8.786-16.139-11.789-1.609-1.609-3.657-6.989-6.838-15.653-2.4-6.529-4.309-11.6-5.215-12.552-1.511-1.512-4.96-2.828-8.612-4.222-1.627-.625-3.405-1.308-5.092-2.037-5.638-2.447-5.853-4.209-5.826-8.314v-.739a1.218,1.218,0,0,1,.768-1.157c5.542-2.331,9.26-8.49,9.26-15.329,0-8.989-6.268-16.3-13.972-16.3s-13.972,7.312-13.972,16.3c0,6.834,3.712,12.99,9.239,15.315a1.214,1.214,0,0,1,.777,1.147l.009,1.037c.049,3.747-.169,5.654-5.651,8.032-1.712.736-3.505,1.422-5.087,2.027C4.355,247.862.9,249.18-.6,250.687c-.915.961-2.811,6-5.2,12.5C-9,271.894-11.054,277.3-12.659,278.9c-3.018,3.019-14.048,10.553-16.135,11.79a3.02,3.02,0,0,1-1.581.41c-1.6,0-3.405-.958-5-1.8-.3-.162-.631-.337-.938-.491l-.361.056-.286.277-.065.36a5.229,5.229,0,0,1,.45,2.833,4.9,4.9,0,0,1-1.691,3.335,2.882,2.882,0,0,1-1.868.688,2.88,2.88,0,0,1-2.2-1.015l-.108-.133a4.9,4.9,0,0,1-.928-3.592,5.039,5.039,0,0,1,1.452-3.133l.093-.222v-.3l-.089-.222a1.323,1.323,0,0,0-.89-.4l-.1.013c-1.471.441-4.131,4.826-4.622,6.557-.068.923,1.553,3.3,6.253,6.323a7.019,7.019,0,0,0,3.739.813c3.967,0,9.506-1.559,13.235-3.1,3.706-1.538,14.263-8.727,16.695-11.157,1.839-1.839,8.067-13.4,11.56-20.248a1.208,1.208,0,0,1,2.263.329c.11.588,2.7,14.465,1.736,19.448A40.9,40.9,0,0,1,5.97,293.7a1.208,1.208,0,0,1-2.216-.958,40.115,40.115,0,0,0,1.831-6.882c.536-2.791-.329-9.605-.893-13.418l-.26-.265-.394-.067-.332.165c-2.76,5.236-7.676,14.309-9.6,16.234-2.893,2.9-13.675,10.1-17.48,11.679C-27.2,301.77-32.906,303.466-37.438,303.466ZM84.955,290.279a2.519,2.519,0,0,0-.4,1.864,2.254,2.254,0,0,0,.872,1.714l.262.061.318-.068.215-.163a3.034,3.034,0,0,0,.313-1.812,2.43,2.43,0,0,0-.8-1.69l-.412-.013-.2.163Zm-125.219-.08a3.085,3.085,0,0,0-.69,1.7,2.287,2.287,0,0,0,.483,1.89l.245.116h.325l.244-.115a3.083,3.083,0,0,0,.692-1.7,2.236,2.236,0,0,0-.493-1.9l-.442-.043-.155.126Z" transform="translate(57.45 -192.71)" fill="#00d5ff"/>
    </g>
    <g transform="matrix(1, 0, 0, 1, 1119.5, 1115.55)" filter="url(#Path_244-2)">
      <path id="Path_244-2-2" data-name="Path 244-2" d="M25.084,236.4a1.039,1.039,0,0,1-.4-2c5.615-2.34,9.389-8.571,9.389-15.495,0-9.079-6.345-16.464-14.14-16.464S5.786,209.826,5.786,218.906c0,6.918,3.768,13.146,9.378,15.489a1.039,1.039,0,0,1-.8,1.918h0c-6.375-2.666-10.657-9.66-10.657-17.408,0-10.224,7.275-18.546,16.22-18.546s16.221,8.322,16.221,18.546c0,7.757-4.289,14.752-10.668,17.413A1.066,1.066,0,0,1,25.084,236.4Z" transform="translate(60.23 -192.7)" fill="#85e0ff"/>
    </g>
    <g transform="matrix(1, 0, 0, 1, 1119.5, 1115.55)" filter="url(#Path_511)">
      <path id="Path_511-2" data-name="Path 511" d="M25.065,236.069a.724.724,0,0,1-.278-1.391c5.732-2.389,9.583-8.733,9.583-15.787,0-9.252-6.485-16.779-14.456-16.779s-14.46,7.527-14.46,16.779c0,7.047,3.846,13.389,9.572,15.781a.723.723,0,0,1,.39.393.724.724,0,0,1-.949.943c-6.258-2.617-10.462-9.5-10.462-17.117,0-10.051,7.135-18.23,15.9-18.23s15.906,8.179,15.906,18.23c0,7.628-4.209,14.509-10.474,17.122A.748.748,0,0,1,25.065,236.069Z" transform="translate(60.24 -192.69)" fill="#85e0ff"/>
    </g>
    <g transform="matrix(1, 0, 0, 1, 1119.5, 1115.55)" filter="url(#Path_512)">
      <path id="Path_512-2" data-name="Path 512" d="M65.821,333.711c-3.7,0-8.2-.934-13.75-2.853-7.439-2.581-44.91-19.675-49.157-21.616l-.122-.028c-23.414-.669-23.414-2.988-23.414-3.748,0-3.466,4.437-4.376,8.728-5.254a23.191,23.191,0,0,0,6.48-1.918,25.506,25.506,0,0,0,3.369-2.467c1.788-1.489,3.482-2.9,6.186-2.9a9.321,9.321,0,0,1,1.6.149c2.9.536,4.591,4.837,5.039,6.142l.233.207c6.8,1.439,19.776,4.15,30.274,6.129,11.288,2.123,13.464,5.72,14.764,7.87a6.427,6.427,0,0,0,.753,1.083.735.735,0,0,1,.017,1.044.724.724,0,0,1-1.026,0,7.2,7.2,0,0,1-.975-1.362c-1.257-2.077-3.146-5.2-13.8-7.211-12.853-2.42-29.073-5.871-30.88-6.255a.736.736,0,0,1-.56-.511c-.016-.052-1.606-5.251-4.1-5.7a7.376,7.376,0,0,0-1.369-.136c-2.142,0-3.505,1.136-5.233,2.575a26.357,26.357,0,0,1-3.528,2.591,24,24,0,0,1-6.925,2.1c-3.555.724-7.213,1.469-7.571,3.508l.15.325c1.868,1.108,12.673,2.041,22.039,2.3a.776.776,0,0,1,.283.064l.157.073c6.95,3.172,41.979,19.122,49.066,21.581,5.3,1.838,9.767,2.771,13.281,2.771,3.7,0,6.311-1.054,7.749-3.131a12.708,12.708,0,0,0-1.541-16.461,25.747,25.747,0,0,0-9.585-6.158.727.727,0,0,1,.188-1.429.684.684,0,0,1,.205.03,26.744,26.744,0,0,1,10.22,6.528,14.132,14.132,0,0,1,1.709,18.3C73.045,332.446,70.034,333.711,65.821,333.711Z" transform="translate(58.97 -187.92)" fill="#85e0ff"/>
    </g>
    <g transform="matrix(1, 0, 0, 1, 1119.5, 1115.55)" filter="url(#Path_513)">
      <path id="Path_513-2" data-name="Path 513" d="M53.379,305.087a.725.725,0,0,1-.087-1.444,1.285,1.285,0,0,0,.828-.5l.049-.1a2.226,2.226,0,0,0-.206-1.716c-.786-1.878-7.376-2.591-11.34-2.591-.522,0-1.024.012-1.5.034l-.131,0c-1.573,0-3-.972-4.515-2a17.45,17.45,0,0,0-4.432-2.407A3.333,3.333,0,0,0,31,294.186c-2.587,0-3.825,3.325-3.837,3.36a.725.725,0,1,1-1.38-.445c.636-1.662,2.418-4.357,5.226-4.357a4.834,4.834,0,0,1,1.464.238,18.611,18.611,0,0,1,4.81,2.581c1.27.872,2.574,1.767,3.62,1.767.055,0,.109,0,.162-.007.247-.005.7-.018,1.349-.018,2.682,0,11.537.252,12.9,3.505a3.351,3.351,0,0,1,.061,3.065,2.706,2.706,0,0,1-1.915,1.209Z" transform="translate(61.37 -187.93)" fill="#85e0ff"/>
    </g>
    <g transform="matrix(1, 0, 0, 1, 1119.5, 1115.55)" filter="url(#Path_514)">
      <path id="Path_514-2" data-name="Path 514" d="M-17.993,330.933c-6.056,0-11.131-2.255-12.93-5.745-2.7-5.237-2.585-12.92,5.809-18.78a.723.723,0,0,1,.392-.116.726.726,0,0,1,.608.327.725.725,0,0,1-.176.983c-7.625,5.322-7.76,12.231-5.343,16.923,1.886,3.665,7.206,4.971,11.557,4.971a20.233,20.233,0,0,0,6.992-1.175c3.915-1.457,12.665-5.043,24.639-10.1l.587-.248a.736.736,0,0,1,.288-.059.724.724,0,0,1,.285,1.389l-.34.144c-5.616,2.374-19.289,8.12-24.953,10.229A21.527,21.527,0,0,1-17.993,330.933Z" transform="translate(58.36 -187.23)" fill="#85e0ff"/>
    </g>
    <g transform="matrix(1, 0, 0, 1, 1119.5, 1115.55)" filter="url(#Path_248-2)">
      <path id="Path_248-2-2" data-name="Path 248-2" d="M75.812,288.034c-.256-2.357.963-4.355,2.773-4.551.038-.006.242-.018.28-.018,1.7,0,3.166,1.665,3.4,3.869a5.031,5.031,0,0,1-.518,2.921,2.979,2.979,0,0,1-2.255,1.632C77.425,292.031,76.036,290.1,75.812,288.034Zm3.05-2.487c-.6.065-1.116,1.04-.985,2.265.129,1.18.808,2.009,1.337,2.009a.928.928,0,0,0,.7-.564,2.98,2.98,0,0,0,.28-1.7c-.123-1.179-.8-2.008-1.331-2.008Z" transform="translate(63.95 -188.41)" fill="#85e0ff"/>
    </g>
    <g transform="matrix(1, 0, 0, 1, 1119.5, 1115.55)" filter="url(#Path_515)">
      <path id="Path_515-2" data-name="Path 515" d="M79.262,291.564c-1.814,0-2.959-1.8-3.153-3.58a4.625,4.625,0,0,1,.568-2.888,2.6,2.6,0,0,1,1.927-1.316c.055-.006.211-.014.247-.015,1.54,0,2.867,1.542,3.089,3.587a4.7,4.7,0,0,1-.486,2.743,2.663,2.663,0,0,1-2.018,1.464C79.392,291.562,79.327,291.564,79.262,291.564Zm-.449-6.347c-.842.092-1.409,1.264-1.265,2.613.137,1.263.879,2.291,1.65,2.291a1.249,1.249,0,0,0,.995-.76,3.256,3.256,0,0,0,.3-1.864c-.129-1.233-.882-2.281-1.644-2.281Z" transform="translate(63.97 -188.39)" fill="#85e0ff"/>
    </g>
    <g transform="matrix(1, 0, 0, 1, 1119.5, 1115.55)" filter="url(#Path_516)">
      <path id="Path_516-2" data-name="Path 516" d="M79.225,301.3c-4.438,0-10.079-1.677-13.881-3.25-3.668-1.525-14.516-8.772-17.323-11.574-2.138-2.142-8.05-13.289-10.493-17.983l-.59.1c-.878,5.465-1.8,12.622-1.216,15.682a57.666,57.666,0,0,0,2.466,8.719.726.726,0,0,1-1.354.526,58.578,58.578,0,0,1-2.537-8.975c-.89-4.637,1.458-17.765,1.729-19.247a.725.725,0,0,1,1.364-.22c.091.179,9.128,17.844,11.655,20.378,2.449,2.45,13.1,9.708,16.85,11.263,3.764,1.563,9.367,3.14,13.4,3.14a7.489,7.489,0,0,0,4.017-.886c4.88-3.146,6.768-5.768,6.457-6.872-.541-1.887-3.4-6.535-4.947-6.891a1.158,1.158,0,0,0-.261-.029c-1.087,0-2.175,1.458-2.6,2.227a.726.726,0,0,1-.638.38.723.723,0,0,1-.622-.358c-.2-.336-.884-1.2-1.66-1.2l-.105.018a11.4,11.4,0,0,0-2.018.942c-1.452.771-3.276,1.74-4.78,1.74a2.547,2.547,0,0,1-1.323-.332c-2.064-1.218-13.008-8.685-16.043-11.712-1.53-1.532-3.656-7.123-6.725-15.478-2.441-6.644-4.376-11.78-5.332-12.735-1.576-1.58-5.071-2.914-8.771-4.329-1.493-.57-3.352-1.281-5.072-2.027-5.3-2.3-5.562-3.816-5.537-7.868v-.766a.725.725,0,0,1,1.45,0v.78c-.021,3.541-.026,4.493,4.664,6.526,1.708.741,3.54,1.439,5.013,2,4.021,1.539,7.489,2.865,9.284,4.661,1.178,1.178,2.927,5.795,5.669,13.26,2.21,6.025,4.961,13.524,6.39,14.955,2.9,2.9,13.7,10.274,15.752,11.5a1.194,1.194,0,0,0,.609.144,11.347,11.347,0,0,0,4.09-1.6,7.073,7.073,0,0,1,2.839-1.125,3.051,3.051,0,0,1,1.926.81l.46-.033a4.27,4.27,0,0,1,3.054-1.829,2.57,2.57,0,0,1,.6.074c2.552.579,5.541,6.22,6.024,7.906.854,3-4.657,6.93-7.065,8.483A9.1,9.1,0,0,1,79.225,301.3Z" transform="translate(61.24 -191.02)" fill="#85e0ff"/>
    </g>
    <g transform="matrix(1, 0, 0, 1, 1119.5, 1115.55)" filter="url(#Path_250-2)">
      <path id="Path_250-2-2" data-name="Path 250-2" d="M-42.492,300.469c-3.067-1.978-8.081-5.753-7.2-8.834.509-1.783,3.535-7.508,6.249-8.126,1.743-.415,3.148.835,3.983,1.869a3.339,3.339,0,0,1,2.189-.9,7.271,7.271,0,0,1,2.933,1.157c1.349.715,3.612,1.914,4.4,1.452,1.971-1.165,12.837-8.592,15.689-11.441,1.367-1.367,4.114-8.843,6.317-14.841,2.75-7.48,4.5-12.129,5.742-13.374,1.839-1.844,5.342-3.18,9.4-4.733,1.647-.631,3.353-1.279,5-1.993,4.347-1.886,4.34-2.66,4.3-5.937l-.009-1.084a1.041,1.041,0,0,1,2.081,0l.008,1.052c.048,3.77-.158,5.536-5.55,7.872-1.672.725-3.406,1.391-5.083,2.032-3.674,1.4-7.141,2.734-8.668,4.252-.985.991-3.356,7.438-5.258,12.62-3.083,8.4-5.223,14.022-6.8,15.6-3.016,3.017-14.02,10.532-16.1,11.762-1.783,1.052-4.359-.309-6.428-1.408a10.6,10.6,0,0,0-1.973-.916c-.607,0-1.214.774-1.377,1.045a1.05,1.05,0,0,1-.912.5,1.035,1.035,0,0,1-.895-.536c-.421-.757-1.587-2.275-2.51-2.043-1.352.309-4.15,4.693-4.714,6.67-.228.8,1.287,3.272,6.325,6.521,3.319,2.147,12.265-.26,17.127-2.281,3.726-1.544,14.314-8.761,16.749-11.193,2.078-2.08,9.075-15.355,11.594-20.3a1.041,1.041,0,0,1,1.951.281c.105.592,2.677,14.5,1.733,19.39a40.735,40.735,0,0,1-1.966,7.325,1.041,1.041,0,0,1-1.92-.8,39.356,39.356,0,0,0,1.845-6.913c.615-3.2-.5-11.166-1.217-15.573-2.734,5.258-8.42,15.926-10.549,18.06-2.823,2.819-13.732,10.108-17.425,11.643C-28.211,300.34-38.1,303.3-42.492,300.469Z" transform="translate(57.46 -191.03)" fill="#85e0ff"/>
    </g>
    <g transform="matrix(1, 0, 0, 1, 1119.5, 1115.55)" filter="url(#Path_517)">
      <path id="Path_517-2" data-name="Path 517" d="M-37.449,301.306a9.051,9.051,0,0,1-4.888-1.117c-5.093-3.286-7.668-6.378-7.065-8.483.482-1.685,3.467-7.324,6.016-7.9a2.616,2.616,0,0,1,.617-.076,4.267,4.267,0,0,1,3.051,1.834l.461.033a3.009,3.009,0,0,1,1.981-.811,7.014,7.014,0,0,1,2.747,1.1c1.224.652,3.031,1.61,4.113,1.61a1.209,1.209,0,0,0,.622-.146c1.976-1.168,12.873-8.613,15.752-11.491,1.421-1.421,4.176-8.925,6.389-14.954,2.738-7.443,4.475-12.065,5.67-13.261,1.784-1.788,5.235-3.11,9.232-4.64l.317-.121c1.565-.6,3.185-1.219,4.749-1.9,4.544-1.971,4.532-2.874,4.487-6.23l-.011-1.083a.726.726,0,0,1,1.451,0l.008,1.054c.047,3.72-.142,5.318-5.361,7.58-1.613.7-3.251,1.331-5.07,2.027-3.7,1.411-7.189,2.745-8.777,4.324-.965.97-2.9,6.112-5.331,12.735-3.069,8.359-5.2,13.953-6.729,15.484-3.006,3.008-13.967,10.488-16.041,11.713a2.543,2.543,0,0,1-1.327.334c-1.5,0-3.324-.97-4.793-1.749a10.745,10.745,0,0,0-2.018-.937h-.025a2.36,2.36,0,0,0-1.725,1.182.732.732,0,0,1-.629.351.727.727,0,0,1-.63-.373c-.014-.024-1.256-2.23-2.591-2.23a1.08,1.08,0,0,0-.273.033c-1.582.362-4.388,4.952-4.939,6.89-.316,1.1,1.571,3.721,6.456,6.872a7.5,7.5,0,0,0,4.027.891c4.024,0,9.625-1.58,13.392-3.146,3.739-1.549,14.395-8.808,16.851-11.263,2.12-2.12,9.13-15.428,11.653-20.378a.721.721,0,0,1,.647-.4.707.707,0,0,1,.326.079.723.723,0,0,1,.386.514c.452,2.5,2.595,14.807,1.733,19.273a40.521,40.521,0,0,1-1.951,7.275.723.723,0,0,1-.653.4.712.712,0,0,1-.3-.066.726.726,0,0,1-.377-.918,39.708,39.708,0,0,0,1.86-6.972c.625-3.25-.493-11.216-1.217-15.676l-.591-.1C1.8,273.174-4.1,284.31-6.258,286.47c-2.8,2.8-13.651,10.048-17.323,11.574C-27.188,299.549-32.985,301.306-37.449,301.306Z" transform="translate(57.48 -191.02)" fill="#85e0ff"/>
    </g>
    <g transform="matrix(1, 0, 0, 1, 1119.5, 1115.55)" filter="url(#Path_251-2)">
      <path id="Path_251-2-2" data-name="Path 251-2" d="M-40.753,291.886a2.811,2.811,0,0,1-1.885-1.079,4.731,4.731,0,0,1-.891-3.471c.24-2.209,1.7-3.869,3.406-3.869.037,0,.24.01.279.018,1.812.2,3.028,2.194,2.773,4.551C-37.292,290.085-38.669,292.037-40.753,291.886Zm.681-6.334c-.583,0-1.262.825-1.386,2a2.747,2.747,0,0,0,.442,1.947.739.739,0,0,0,.487.316c.776.039,1.3-1.175,1.39-2,.133-1.226-.383-2.2-.93-2.26Z" transform="translate(57.78 -188.41)" fill="#85e0ff"/>
    </g>
    <g transform="matrix(1, 0, 0, 1, 1119.5, 1115.55)" filter="url(#Path_518)">
      <path id="Path_518-2" data-name="Path 518" d="M-40.747,291.557A2.505,2.505,0,0,1-42.4,290.6a4.394,4.394,0,0,1-.829-3.235c.223-2.055,1.552-3.6,3.094-3.6.033,0,.183.007.229.013,1.649.18,2.744,2.026,2.509,4.206-.194,1.778-1.335,3.578-3.145,3.578C-40.61,291.564-40.678,291.561-40.747,291.557Zm.659-6.336c-.8,0-1.567,1.025-1.7,2.286a3.054,3.054,0,0,0,.493,2.156,1.073,1.073,0,0,0,.7.451h.005c1.067,0,1.651-1.331,1.752-2.276.144-1.325-.409-2.52-1.207-2.608l.255.189Z" transform="translate(57.8 -188.39)" fill="#85e0ff"/>
    </g>
    <g transform="matrix(1, 0, 0, 1, 1119.5, 1115.55)" filter="url(#Path_252-2)">
      <path id="Path_252-2-2" data-name="Path 252-2" d="M25.046,235.672a.347.347,0,0,1-.133-.667c5.868-2.447,9.813-8.929,9.813-16.133,0-9.458-6.656-17.156-14.829-17.156s-14.829,7.7-14.829,17.156c0,7.194,3.941,13.672,9.8,16.128a.347.347,0,0,1-.269.639c-6.116-2.557-10.229-9.295-10.229-16.767,0-9.844,6.969-17.852,15.527-17.852s15.517,8.009,15.517,17.852c0,7.482-4.114,14.222-10.241,16.773A.377.377,0,0,1,25.046,235.672Z" transform="translate(60.26 -192.67)" fill="#e2faff"/>
    </g>
    <g transform="matrix(1, 0, 0, 1, 1119.5, 1115.55)" filter="url(#Path_519)">
      <path id="Path_519-2" data-name="Path 519" d="M25.041,235.563a.245.245,0,0,1-.24-.244.241.241,0,0,1,.147-.221c5.908-2.464,9.878-8.987,9.878-16.231,0-9.518-6.7-17.26-14.933-17.26S4.96,209.35,4.96,218.867c0,7.233,3.965,13.752,9.866,16.225a.241.241,0,0,1,.118.32.241.241,0,0,1-.22.141C8.559,233,4.475,226.3,4.475,218.867c0-9.785,6.918-17.746,15.422-17.746s15.412,7.961,15.412,17.746c0,7.441-4.09,14.142-10.177,16.676Z" transform="translate(60.27 -192.66)" fill="#e2faff"/>
    </g>
    <g transform="matrix(1, 0, 0, 1, 1119.5, 1115.55)" filter="url(#Path_520)">
      <path id="Path_520-2" data-name="Path 520" d="M65.8,333.216c-3.635,0-8.08-.929-13.592-2.839-7.67-2.665-48.829-21.47-49.245-21.661-11.2-.314-23.127-1.33-23.127-3.27,0-3.079,4.247-3.943,8.353-4.777a23.746,23.746,0,0,0,6.639-1.987,25.591,25.591,0,0,0,3.4-2.508c1.8-1.5,3.361-2.793,5.872-2.793a8.549,8.549,0,0,1,1.525.146c2.844.525,4.491,5.251,4.792,6.192l.079.072c.713.151,17.626,3.755,30.673,6.215,11.07,2.084,13.179,5.562,14.44,7.638a6.575,6.575,0,0,0,.837,1.192.245.245,0,0,1,0,.349.237.237,0,0,1-.338,0,6.41,6.41,0,0,1-.908-1.279c-1.223-2.015-3.263-5.376-14.12-7.416-13.268-2.5-30.171-6.111-30.885-6.263a.244.244,0,0,1-.182-.169c-.015-.054-1.656-5.533-4.475-6.046a8.052,8.052,0,0,0-1.429-.137c-2.347,0-3.842,1.243-5.573,2.683A26.733,26.733,0,0,1-4.914,299.1a23.66,23.66,0,0,1-6.789,2.045c-4.111.841-7.977,1.632-7.977,4.31,0,1.353,11.535,2.479,22.686,2.786l.258.1c6.954,3.173,42,19.126,49.1,21.595,5.4,1.873,9.924,2.823,13.449,2.823,3.854,0,6.593-1.135,8.139-3.372a13.166,13.166,0,0,0-1.591-17.067,26.1,26.1,0,0,0-9.8-6.285.242.242,0,0,1,.066-.475,26.015,26.015,0,0,1,10.083,6.415,13.654,13.654,0,0,1,1.646,17.685C72.719,332.018,69.842,333.216,65.8,333.216Z" transform="translate(58.99 -187.89)" fill="#e2faff"/>
    </g>
    <g transform="matrix(1, 0, 0, 1, 1119.5, 1115.55)" filter="url(#Path_521)">
      <path id="Path_521-2" data-name="Path 521" d="M53.35,304.584a.233.233,0,0,1-.23-.2.247.247,0,0,1,.207-.282,1.786,1.786,0,0,0,1.2-.754,2.484,2.484,0,0,0-.136-2.2c-.958-2.3-7.878-2.912-11.816-2.912-.553,0-1.061.012-1.5.034h-.15c-1.379,0-2.676-.881-4.176-1.9a17.857,17.857,0,0,0-4.588-2.485,3.779,3.779,0,0,0-1.156-.189c-2.853,0-4.306,3.639-4.315,3.676a.25.25,0,0,1-.229.142c-.206-.064-.268-.2-.222-.33.168-.409,1.718-3.979,4.739-3.979a4.368,4.368,0,0,1,1.327.218A18.212,18.212,0,0,1,37,295.949l.116.081c1.382.945,2.575,1.762,3.758,1.762.062,0,.123,0,.184-.006.146,0,.529-.013,1.1-.013,2.662,0,11.448.231,12.69,3.208a2.908,2.908,0,0,1,.095,2.618,2.224,2.224,0,0,1-1.562.984Z" transform="translate(61.39 -187.9)" fill="#e2faff"/>
    </g>
    <g transform="matrix(1, 0, 0, 1, 1119.5, 1115.55)" filter="url(#Path_522)">
      <path id="Path_522-2" data-name="Path 522" d="M-18.089,330.441c-4.64,0-10.34-1.444-12.431-5.5-2.6-5.054-2.483-12.479,5.656-18.166a.246.246,0,0,1,.147-.049.24.24,0,0,1,.194.1.238.238,0,0,1,.046.179.242.242,0,0,1-.095.161c-7.9,5.515-8.024,12.68-5.517,17.551,2,3.879,7.478,5.26,11.937,5.26a20.867,20.867,0,0,0,7.214-1.227c6.817-2.537,25.117-10.3,25.254-10.36l.068,0a.235.235,0,0,1,.248.133.243.243,0,0,1-.128.317c-.15.066-18.463,7.831-25.274,10.368A21.242,21.242,0,0,1-18.089,330.441Z" transform="translate(58.38 -187.2)" fill="#e2faff"/>
    </g>
    <g transform="matrix(1, 0, 0, 1, 1119.5, 1115.55)" filter="url(#Path_256-2)">
      <path id="Path_256-2-2" data-name="Path 256-2" d="M76.469,287.915c-.21-1.934.757-3.636,2.157-3.786,1.428-.163,2.708,1.295,2.918,3.239a4.359,4.359,0,0,1-.439,2.512,2.274,2.274,0,0,1-1.718,1.275C78,291.31,76.683,289.9,76.469,287.915Zm2.233-3.1c-1.021.113-1.714,1.472-1.546,3.022s1.13,2.764,2.156,2.629a1.6,1.6,0,0,0,1.184-.916,3.636,3.636,0,0,0,.361-2.1c-.136-1.261-.921-2.708-2.154-2.631Z" transform="translate(63.99 -188.37)" fill="#e2faff"/>
    </g>
    <g transform="matrix(1, 0, 0, 1, 1119.5, 1115.55)" filter="url(#Path_523)">
      <path id="Path_523-2" data-name="Path 523" d="M79.174,291.057c-1.293,0-2.413-1.358-2.606-3.158a4,4,0,0,1,.724-2.886,1.992,1.992,0,0,1,1.34-.784,1.74,1.74,0,0,1,.208-.013c1.284,0,2.4,1.358,2.595,3.157a4.245,4.245,0,0,1-.427,2.455,2.17,2.17,0,0,1-1.64,1.218A1.933,1.933,0,0,1,79.174,291.057Zm-.489-6.35c-1.079.119-1.814,1.527-1.64,3.137.166,1.532,1.091,2.733,2.1,2.733a1.33,1.33,0,0,0,.17-.01,1.715,1.715,0,0,0,1.266-.978,3.729,3.729,0,0,0,.369-2.16c-.142-1.32-.95-2.725-2.165-2.725Z" transform="translate(63.99 -188.37)" fill="#e2faff"/>
    </g>
    <g transform="matrix(1, 0, 0, 1, 1119.5, 1115.55)" filter="url(#Path_524)">
      <path id="Path_524-2" data-name="Path 524" d="M79.214,300.791c-4.808,0-10.884-2.014-13.717-3.2-3.636-1.508-14.384-8.692-17.168-11.474-2.409-2.415-9.883-16.839-11.357-19.707l-.2.029c-.558,3.206-2.319,13.968-1.559,17.905a58.515,58.515,0,0,0,2.489,8.807.243.243,0,0,1-.137.314c-.023,0-.043,0-.063,0a.229.229,0,0,1-.243-.133,58.663,58.663,0,0,1-2.525-8.9c-.91-4.741,1.628-18.507,1.737-19.09a.247.247,0,0,1,.206-.2h.008a.25.25,0,0,1,.24.129c1.568,3.056,9.35,18.1,11.744,20.493,2.518,2.53,13.108,9.753,17.008,11.374,2.659,1.1,8.918,3.174,13.574,3.174a7.969,7.969,0,0,0,4.3-.968c4.5-2.894,7.116-5.8,6.658-7.4-.571-2.011-3.507-6.82-5.3-7.232a1.676,1.676,0,0,0-.369-.041c-1.661,0-3.009,2.456-3.022,2.481a.216.216,0,0,1-.194.126.248.248,0,0,1-.225-.12c-.036-.061-.873-1.436-2.075-1.436a8.382,8.382,0,0,0-2.344,1.014c-1.43.757-3.2,1.692-4.553,1.692a2.107,2.107,0,0,1-1.083-.267c-2.009-1.193-13.052-8.756-15.946-11.644-1.569-1.567-4.126-8.528-6.6-15.259-2.158-5.872-4.353-11.845-5.464-12.957-1.632-1.631-5.136-2.979-8.847-4.4-1.633-.618-3.418-1.3-5.146-2.05-5.277-2.286-5.269-3.79-5.247-7.423v-.77a.241.241,0,0,1,.483,0v.775c-.021,3.6-.027,4.814,4.956,6.976,1.513.657,3.087,1.261,4.61,1.845l.423.163c3.812,1.458,7.4,2.828,9.113,4.541,1.184,1.191,3.2,6.687,5.542,13.051,2.365,6.437,5.023,13.675,6.519,15.164,2.88,2.883,13.853,10.392,15.846,11.573a1.647,1.647,0,0,0,.839.2c1.243,0,3.031-.948,4.337-1.639a7.379,7.379,0,0,1,2.581-1.067,2.989,2.989,0,0,1,2.157,1.23l.172,0c.457-.685,1.681-2.278,3.178-2.278a2.141,2.141,0,0,1,.462.051c2.163.5,5.091,5.569,5.663,7.571.786,2.766-5.056,6.78-6.864,7.945A8.527,8.527,0,0,1,79.214,300.791Z" transform="translate(61.27 -190.99)" fill="#e2faff"/>
    </g>
    <g transform="matrix(1, 0, 0, 1, 1119.5, 1115.55)" filter="url(#Path_258-2)">
      <path id="Path_258-2-2" data-name="Path 258-2" d="M-42.152,299.851c-1.824-1.176-7.715-5.233-6.9-8.061.577-2.021,3.538-7.141,5.737-7.646,1.747-.388,3.17,1.395,3.755,2.272a3.088,3.088,0,0,1,2.261-1.273,7.481,7.481,0,0,1,2.609,1.078c1.671.888,3.96,2.091,5.073,1.441,1.989-1.181,12.943-8.669,15.828-11.557,1.472-1.472,4.134-8.706,6.48-15.087,2.348-6.4,4.378-11.919,5.581-13.128,1.735-1.732,5.339-3.109,9.15-4.565,1.661-.631,3.375-1.289,5.024-2.007,4.776-2.068,4.76-3.206,4.716-6.582,0-.342-.006-.7-.006-1.078a.346.346,0,0,1,.692,0h0c0,.379,0,.736.008,1.067.043,3.414.065,4.972-5.133,7.227-1.663.719-3.385,1.382-5.048,2.015-3.743,1.431-7.281,2.786-8.911,4.417-1.1,1.094-3.295,7.08-5.42,12.872-2.484,6.76-5.056,13.756-6.639,15.343-2.917,2.921-13.963,10.472-15.966,11.66-1.45.85-3.836-.412-5.751-1.425a8.25,8.25,0,0,0-2.283-1c-1.157,0-1.978,1.372-1.986,1.383a.414.414,0,0,1-.3.172.354.354,0,0,1-.3-.183c-.014-.027-1.546-2.791-3.272-2.384-1.758.4-4.656,5.163-5.225,7.157-.444,1.553,2.153,4.417,6.614,7.286,3.981,2.569,14.176-.736,17.774-2.216,3.868-1.61,14.44-8.814,16.972-11.35,2.582-2.58,11.633-20.289,11.721-20.468a.338.338,0,0,1,.361-.185.349.349,0,0,1,.289.283c.105.581,2.652,14.368,1.736,19.13a40.337,40.337,0,0,1-1.925,7.189.348.348,0,0,1-.639-.272A39.964,39.964,0,0,0,6.4,284.332c.752-3.9-.98-14.533-1.558-17.866C2.92,270.2-4.195,283.856-6.537,286.2c-2.784,2.784-13.553,9.984-17.2,11.5C-26.2,298.732-37.552,302.808-42.152,299.851Z" transform="translate(57.5 -191)" fill="#e2faff"/>
    </g>
    <g transform="matrix(1, 0, 0, 1, 1119.5, 1115.55)" filter="url(#Path_525)">
      <path id="Path_525-2" data-name="Path 525" d="M-37.52,300.8a8.508,8.508,0,0,1-4.58-1.04c-1.809-1.165-7.652-5.184-6.861-7.945.572-2,3.5-7.075,5.66-7.571a2.144,2.144,0,0,1,.469-.053c1.441,0,2.608,1.429,3.175,2.28l.172,0a2.976,2.976,0,0,1,2.184-1.229,7.39,7.39,0,0,1,2.543,1.061c1.308.7,3.09,1.644,4.342,1.644a1.656,1.656,0,0,0,.842-.2c2-1.189,12.99-8.712,15.848-11.573,1.492-1.491,4.155-8.734,6.5-15.126,2.243-6.114,4.362-11.888,5.557-13.089,1.715-1.713,5.3-3.083,9.089-4.533,1.663-.632,3.4-1.3,5.052-2.016,4.839-2.1,4.823-3.251,4.778-6.677l-.006-1.079a.241.241,0,1,1,.483,0c0,.381,0,.739.008,1.071.042,3.368.062,4.9-5.07,7.128-1.657.717-3.4,1.388-5.043,2.013-3.755,1.436-7.3,2.791-8.949,4.441-1.117,1.114-3.316,7.111-5.445,12.911-2.481,6.752-5.048,13.733-6.615,15.3-2.885,2.887-13.934,10.451-15.945,11.644a2.121,2.121,0,0,1-1.084.265c-1.366,0-3.139-.939-4.563-1.694a8.333,8.333,0,0,0-2.305-1.006h0a2.907,2.907,0,0,0-2.1,1.426c-.042.073-.107.1-.239.128a.262.262,0,0,1-.187-.131c-.008-.02-1.357-2.479-3.01-2.479a1.682,1.682,0,0,0-.377.043c-1.789.408-4.728,5.219-5.3,7.23-.459,1.6,2.155,4.508,6.659,7.4a7.927,7.927,0,0,0,4.283.965c4.635,0,10.721-1.993,13.587-3.171,3.888-1.62,14.479-8.843,17.006-11.374,2.622-2.619,11.658-20.324,11.742-20.5a.235.235,0,0,1,.208-.13.253.253,0,0,1,.243.2c.448,2.458,2.586,14.674,1.736,19.093a40.2,40.2,0,0,1-1.919,7.172.241.241,0,0,1-.213.125.242.242,0,0,1-.228-.324,40.13,40.13,0,0,0,1.89-7.065c.755-3.923-1-14.693-1.559-17.9l-.2-.029c-2.081,4.039-9.05,17.393-11.36,19.706-2.783,2.782-13.53,9.965-17.164,11.473C-25.9,298.484-32.488,300.8-37.52,300.8Z" transform="translate(57.5 -190.99)" fill="#e2faff"/>
    </g>
  </g>
</svg>
