<svg xmlns="http://www.w3.org/2000/svg" xmlns:xlink="http://www.w3.org/1999/xlink" width="164.665" height="162.115" viewBox="0 0 164.665 162.115">
  <defs>
    <filter id="Path_321-2" x="0" y="0" width="144.953" height="154.091" filterUnits="userSpaceOnUse">
      <feOffset input="SourceAlpha"/>
      <feGaussianBlur stdDeviation="3" result="blur"/>
      <feFlood flood-color="#2ee2fe" flood-opacity="0.62"/>
      <feComposite operator="in" in2="blur"/>
      <feComposite in="SourceGraphic"/>
    </filter>
    <filter id="Path_528" x="0.64" y="0.631" width="143.673" height="152.83" filterUnits="userSpaceOnUse">
      <feOffset input="SourceAlpha"/>
      <feGaussianBlur stdDeviation="3" result="blur-2"/>
      <feFlood flood-color="#2ee2fe" flood-opacity="0.62"/>
      <feComposite operator="in" in2="blur-2"/>
      <feComposite in="SourceGraphic"/>
    </filter>
    <filter id="Path_529" x="1.144" y="1.135" width="142.664" height="151.819" filterUnits="userSpaceOnUse">
      <feOffset input="SourceAlpha"/>
      <feGaussianBlur stdDeviation="3" result="blur-3"/>
      <feFlood flood-color="#2ee2fe" flood-opacity="0.62"/>
      <feComposite operator="in" in2="blur-3"/>
      <feComposite in="SourceGraphic"/>
    </filter>
    <filter id="Path_322" x="14.758" y="14.59" width="115.432" height="122.578" filterUnits="userSpaceOnUse">
      <feOffset input="SourceAlpha"/>
      <feGaussianBlur stdDeviation="3" result="blur-4"/>
      <feFlood flood-color="#dadada"/>
      <feComposite operator="in" in2="blur-4"/>
      <feComposite in="SourceGraphic"/>
    </filter>
    <filter id="Path_530" x="15.389" y="15.22" width="114.17" height="121.317" filterUnits="userSpaceOnUse">
      <feOffset input="SourceAlpha"/>
      <feGaussianBlur stdDeviation="3" result="blur-5"/>
      <feFlood flood-color="#dadada"/>
      <feComposite operator="in" in2="blur-5"/>
      <feComposite in="SourceGraphic"/>
    </filter>
    <filter id="Path_531" x="15.893" y="15.725" width="113.16" height="120.306" filterUnits="userSpaceOnUse">
      <feOffset input="SourceAlpha"/>
      <feGaussianBlur stdDeviation="3" result="blur-6"/>
      <feFlood flood-color="#dadada"/>
      <feComposite operator="in" in2="blur-6"/>
      <feComposite in="SourceGraphic"/>
    </filter>
    <filter id="Path_532" x="74.781" y="63.837" width="89.884" height="98.278" filterUnits="userSpaceOnUse">
      <feOffset input="SourceAlpha"/>
      <feGaussianBlur stdDeviation="2.5" result="blur-7"/>
      <feFlood flood-color="#2ee2fe" flood-opacity="0.29"/>
      <feComposite operator="in" in2="blur-7"/>
      <feComposite in="SourceGraphic"/>
    </filter>
    <filter id="Path_502-2" x="75.782" y="64.837" width="87.884" height="96.278" filterUnits="userSpaceOnUse">
      <feOffset input="SourceAlpha"/>
      <feGaussianBlur stdDeviation="2.5" result="blur-8"/>
      <feFlood flood-color="#2ee2fe" flood-opacity="0.29"/>
      <feComposite operator="in" in2="blur-8"/>
      <feComposite in="SourceGraphic"/>
    </filter>
    <filter id="Path_533" x="75.521" y="64.566" width="88.387" height="96.801" filterUnits="userSpaceOnUse">
      <feOffset input="SourceAlpha"/>
      <feGaussianBlur stdDeviation="2.5" result="blur-9"/>
      <feFlood flood-color="#2ee2fe" flood-opacity="0.29"/>
      <feComposite operator="in" in2="blur-9"/>
      <feComposite in="SourceGraphic"/>
    </filter>
    <filter id="Path_503-2" x="76.222" y="65.266" width="86.987" height="95.401" filterUnits="userSpaceOnUse">
      <feOffset input="SourceAlpha"/>
      <feGaussianBlur stdDeviation="2.5" result="blur-10"/>
      <feFlood flood-color="#2ee2fe" flood-opacity="0.29"/>
      <feComposite operator="in" in2="blur-10"/>
      <feComposite in="SourceGraphic"/>
    </filter>
    <filter id="Path_534" x="76.1" y="65.157" width="87.248" height="95.635" filterUnits="userSpaceOnUse">
      <feOffset input="SourceAlpha"/>
      <feGaussianBlur stdDeviation="2.5" result="blur-11"/>
      <feFlood flood-color="#2ee2fe" flood-opacity="0.29"/>
      <feComposite operator="in" in2="blur-11"/>
      <feComposite in="SourceGraphic"/>
    </filter>
    <filter id="Path_504-2" x="76.501" y="65.557" width="86.447" height="94.835" filterUnits="userSpaceOnUse">
      <feOffset input="SourceAlpha"/>
      <feGaussianBlur stdDeviation="2.5" result="blur-12"/>
      <feFlood flood-color="#2ee2fe" flood-opacity="0.29"/>
      <feComposite operator="in" in2="blur-12"/>
      <feComposite in="SourceGraphic"/>
    </filter>
  </defs>
  <g id="Group_185327" data-name="Group 185327" transform="translate(-161.719 -943)">
    <g id="Group_185108" data-name="Group 185108" transform="translate(170.719 952)">
      <g transform="matrix(1, 0, 0, 1, -9, -9)" filter="url(#Path_321-2)">
        <path id="Path_321-2-2" data-name="Path 321-2" d="M298.56,360.987a2.937,2.937,0,0,1-1.281-.293c-28.931-14.106-48.068-34.337-56.891-60.128a105.387,105.387,0,0,1-3.806-50.844,2.882,2.882,0,0,1,3.015-2.4c.641.042,1.315.062,2,.062,13.407,0,24.911-8.481,27.352-20.166a2.881,2.881,0,0,1,2.83-2.325h53.527a2.88,2.88,0,0,1,2.83,2.325c2.443,11.685,13.946,20.166,27.352,20.166.689,0,1.363-.02,2-.062a2.873,2.873,0,0,1,3.015,2.4,105.45,105.45,0,0,1-3.8,50.844c-8.815,25.788-27.949,46.017-56.87,60.123A2.941,2.941,0,0,1,298.56,360.987Zm-58.94-110.536c-3.738,22-5.323,76.017,58.94,107.4,64.236-31.381,62.653-85.4,58.918-107.4-.64.037-1.306.054-1.982.054-14.817,0-27.562-9.448-30.371-22.49H271.973c-2.81,13.043-15.553,22.49-30.371,22.49-.676,0-1.341-.018-1.982-.054Z" transform="translate(-226.07 -215.9)" fill="#2ee2fe"/>
      </g>
      <g transform="matrix(1, 0, 0, 1, -9, -9)" filter="url(#Path_528)">
        <path id="Path_528-2" data-name="Path 528" d="M298.42,360.226a2.317,2.317,0,0,1-1-.23c-28.768-14.028-47.8-34.136-56.568-59.765a105.118,105.118,0,0,1-3.781-50.534,2.245,2.245,0,0,1,2.218-1.877l.138,0c.651.043,1.339.063,2.041.063,13.705,0,25.469-8.693,27.969-20.668a2.258,2.258,0,0,1,2.21-1.823h53.53a2.257,2.257,0,0,1,2.212,1.814c2.5,11.984,14.267,20.677,27.97,20.677.7,0,1.39-.02,2.045-.063l.141-.005a2.236,2.236,0,0,1,2.21,1.876,105.2,105.2,0,0,1-3.779,50.544c-8.758,25.616-27.784,45.723-56.548,59.752a2.314,2.314,0,0,1-1,.235ZM238.866,250.214c-3.732,21.968-5.428,76.472,59.284,108.074h.554c64.683-31.6,62.992-86.105,59.264-108.074l-.66-.524c-.627.037-1.281.053-1.945.053-14.495,0-27.009-9.249-29.753-21.99l-.617-.5H271.84l-.617.5c-2.745,12.741-15.259,21.99-29.754,21.99-.664,0-1.316-.016-1.945-.053Z" transform="translate(-225.94 -215.77)" fill="#76f2ff"/>
      </g>
      <g transform="matrix(1, 0, 0, 1, -9, -9)" filter="url(#Path_529)">
        <path id="Path_529-2" data-name="Path 529" d="M298.316,359.615a1.817,1.817,0,0,1-.78-.178c-28.643-13.968-47.588-33.977-56.309-59.475a104.575,104.575,0,0,1-3.762-50.284,1.743,1.743,0,0,1,1.721-1.458l.124,0c.642.043,1.342.064,2.055.064,13.944,0,25.914-8.86,28.464-21.069a1.757,1.757,0,0,1,1.716-1.422h53.53a1.75,1.75,0,0,1,1.716,1.407c2.554,12.22,14.525,21.084,28.466,21.084.713,0,1.413-.021,2.078-.064l.126-.005a1.73,1.73,0,0,1,1.694,1.456,104.691,104.691,0,0,1-3.76,50.3c-8.712,25.483-27.65,45.488-56.289,59.457a1.817,1.817,0,0,1-.785.182ZM239.1,249.192l-.657.524-.184.309c-3.751,22.08-5.455,76.86,59.561,108.612l.222.052h.554l.222-.052c64.987-31.747,63.286-86.531,59.539-108.612l-.183-.31-.66-.524-.342-.108c-.618.035-1.263.052-1.918.052-14.259,0-26.565-9.08-29.26-21.592l-.177-.288-.617-.5-.317-.112H271.736l-.317.112-.617.5-.177.288c-2.695,12.512-15,21.592-29.261,21.592-.654,0-1.3-.016-1.916-.052Z" transform="translate(-225.83 -215.66)" fill="#d2fdff"/>
      </g>
      <g transform="matrix(1, 0, 0, 1, -9, -9)" filter="url(#Path_322)">
        <path id="Path_322-2" data-name="Path 322" d="M295.5,341.038a3.026,3.026,0,0,1-1.5-.4h0c-39.969-23.073-47.73-55.89-47.2-79.357a2.951,2.951,0,0,1,2.189-2.783,47.428,47.428,0,0,0,27.958-20.619,2.947,2.947,0,0,1,2.523-1.418h32.046a2.949,2.949,0,0,1,2.523,1.418A47.419,47.419,0,0,0,341.988,258.5a2.953,2.953,0,0,1,2.188,2.784c.527,23.466-7.232,56.285-47.185,79.357A3.019,3.019,0,0,1,295.5,341.038Zm-45.6-79.561c-.477,22.6,7.065,54.162,45.594,76.43,38.506-22.264,46.05-53.824,45.57-76.431a50.523,50.523,0,0,1-29.648-21.9h-31.87A50.523,50.523,0,0,1,249.9,261.477Z" transform="translate(-223.01 -212.87)" fill="#c6c6c6"/>
      </g>
      <g transform="matrix(1, 0, 0, 1, -9, -9)" filter="url(#Path_530)">
        <path id="Path_530-2" data-name="Path 530" d="M295.367,340.277a2.394,2.394,0,0,1-1.188-.317c-39.7-22.918-47.41-55.5-46.886-78.8a2.333,2.333,0,0,1,1.72-2.188,47.9,47.9,0,0,0,28.33-20.893,2.337,2.337,0,0,1,1.986-1.123h32.049a2.335,2.335,0,0,1,1.985,1.115,47.9,47.9,0,0,0,28.333,20.9,2.332,2.332,0,0,1,1.72,2.19c.524,23.3-7.184,55.879-46.87,78.8A2.385,2.385,0,0,1,295.367,340.277ZM278.885,239.112a49.752,49.752,0,0,1-29.276,21.626l-.467.594c-.479,22.741,7.1,54.557,45.91,76.99h.631c38.8-22.433,46.368-54.249,45.886-76.991l-.467-.594a49.753,49.753,0,0,1-29.279-21.626l-.534-.294h-31.87Z" transform="translate(-222.88 -212.74)" fill="#e2e2e2"/>
      </g>
      <g transform="matrix(1, 0, 0, 1, -9, -9)" filter="url(#Path_531)">
        <path id="Path_531-2" data-name="Path 531" d="M295.261,339.666a1.89,1.89,0,0,1-.936-.249c-39.484-22.793-47.154-55.186-46.633-78.349a1.824,1.824,0,0,1,1.346-1.71,48.418,48.418,0,0,0,28.627-21.112,1.835,1.835,0,0,1,1.558-.887h32.049a1.826,1.826,0,0,1,1.553.873,48.413,48.413,0,0,0,28.635,21.125,1.823,1.823,0,0,1,1.344,1.712c.52,23.162-7.145,55.555-46.617,78.348A1.868,1.868,0,0,1,295.261,339.666Zm-16.192-101.4-.534.3-.183.173a49.243,49.243,0,0,1-28.979,21.406l-.266.177-.468.594-.107.3c-.482,22.876,7.136,54.882,46.161,77.437l.254.068h.631l.252-.068c39.011-22.554,46.622-54.561,46.138-77.438l-.108-.3-.467-.594-.266-.177a49.243,49.243,0,0,1-28.982-21.406l-.183-.174-.534-.294-.243-.063h-31.87Z" transform="translate(-222.77 -212.63)" fill="#fff"/>
      </g>
    </g>
    <g id="Group_185239" data-name="Group 185239" transform="translate(-9.437 991.937)">
      <path id="Path_501" data-name="Path 501" d="M290.52,104.832c-12.841-.012-24.478-3.277-31.212-4.687-3.784-.793-4.622-7.146-4.387-10.83.154-2.4,1.269-3.4,1.617-5.788a5.682,5.682,0,0,1,4.782-4.738c4.063-.67,13.944-4.427,13.944-4.427a16.829,16.829,0,0,1,2.981-1.6V68.769a.814.814,0,0,1,.663-.6q.447-.077.9-.149V64.3l-.2-.191a7.2,7.2,0,0,1-2.163-4.418q-.072-.7-.153-1.429a2.571,2.571,0,0,1-.361.029,1.834,1.834,0,0,1-1.411-.528A4.6,4.6,0,0,1,274.531,56a28.2,28.2,0,0,1-1.183-7.38,2.3,2.3,0,0,1,.871-1.917,2.585,2.585,0,0,1,1.042-.5c-.681-5.61-.589-10.4.27-13.9a.779.779,0,0,1,.235-.391c6.347-5.75,17.256-7.555,24.32-4.021a.827.827,0,0,1,.327.294l1.644,2.617a9.416,9.416,0,0,1,5.017,1.958.789.789,0,0,1,.334.532,44.453,44.453,0,0,1,.051,12.918,2.6,2.6,0,0,1,1.018.5,2.3,2.3,0,0,1,.859,1.907A28.261,28.261,0,0,1,308.152,56a4.627,4.627,0,0,1-.987,1.758,1.894,1.894,0,0,1-1.41.53,2.559,2.559,0,0,1-.361-.029c-.052.485-.1.962-.151,1.426a7.215,7.215,0,0,1-2.168,4.421l-.193.187v3.721q.447.072.9.149a.815.815,0,0,1,.663.6l.655,2.767c1.552.567,3.115,1.173,4.63,1.761,4.46,1.731,8.47,4.819,12.323,5.491,2.479.432,3.59,1.291,3.942,3.669.346,2.337.691,4.465.852,6.854.249,3.685-.99,10.94-4.794,11.682Z" fill="#030e20"/>
      <g transform="matrix(1, 0, 0, 1, 171.16, -48.94)" filter="url(#Path_532)">
        <path id="Path_532-2" data-name="Path 532" d="M290.89,105.678a144.484,144.484,0,0,1-30.522-3.3,8.765,8.765,0,0,1-6.911-9.2c.031-.518.067-1.176.107-1.911.159-2.88.374-6.824.657-8.864.381-2.761,3.139-4.842,5.386-5.785,1.493-.626,3.429-1.216,5.48-1.842,2.358-.719,5.031-1.534,7.45-2.535,1.242-.514,2.486-1.029,3.724-1.52l.552-2.464a1.834,1.834,0,0,1,1.459-1.4l.081-.015V64.163a8.828,8.828,0,0,1-2.36-5.178c-.019-.2-.039-.4-.059-.6a2.8,2.8,0,0,1-1.6-.841,5.968,5.968,0,0,1-1.226-2.275,32.32,32.32,0,0,1-1.22-8.04A3.485,3.485,0,0,1,273.723,44a44.971,44.971,0,0,1,.373-14.255,1.842,1.842,0,0,1,.513-.906A24.531,24.531,0,0,1,291.248,22.4a19.026,19.026,0,0,1,8.852,2.025,1.848,1.848,0,0,1,.716.679l1.394,2.343a10.089,10.089,0,0,1,5.051,2.235,1.811,1.811,0,0,1,.685,1.193,50.492,50.492,0,0,1,.15,13.147,3.479,3.479,0,0,1,.581.406,3.516,3.516,0,0,1,1.206,2.824,32.279,32.279,0,0,1-1.223,8.021,5.988,5.988,0,0,1-1.184,2.229,2.933,2.933,0,0,1-1.63.878l-.062.614a8.811,8.811,0,0,1-2.357,5.168v2.685l.077.013a1.829,1.829,0,0,1,1.463,1.407l.538,2.4c1.393.545,2.792,1.115,4.151,1.672,2.325.953,4.867,1.734,7.111,2.424,2.033.626,3.954,1.217,5.431,1.844,2.222.943,4.951,3.013,5.333,5.742.268,1.907.481,5.65.637,8.382.051.886.1,1.68.136,2.291a8.941,8.941,0,0,1-7.028,9.245,160.276,160.276,0,0,1-30.27,3.413h-.116ZM279.621,72.469a1.83,1.83,0,0,1-1.124,1.308c-1.462.567-2.951,1.183-4.4,1.78l-.165.068c-2.409,1-5.189,1.843-7.641,2.59-2.144.653-4.168,1.269-5.63,1.884-.893.375-2.629,1.443-2.815,2.8-.264,1.914-.474,5.748-.626,8.548-.041.752-.079,1.424-.111,1.955a5.133,5.133,0,0,0,4.039,5.391,140.7,140.7,0,0,0,29.739,3.217,156.38,156.38,0,0,0,29.638-3.345,5.24,5.24,0,0,0,4.118-5.421c-.037-.578-.079-1.326-.127-2.164-.153-2.706-.363-6.413-.618-8.234-.187-1.336-1.9-2.4-2.785-2.769-1.42-.6-3.35-1.194-5.394-1.82-2.345-.718-5-1.532-7.454-2.536-1.636-.67-3.328-1.363-4.99-2a1.821,1.821,0,0,1-1.136-1.323l-.483-2.152c-.116-.019-.232-.039-.349-.057a1.826,1.826,0,0,1-1.542-1.809V63.4a1.822,1.822,0,0,1,.526-1.286l.426-.436a5.137,5.137,0,0,0,1.421-3.064c.084-.861.176-1.761.275-2.681a1.826,1.826,0,0,1,1.82-1.639l.2.011a1.83,1.83,0,0,1,.627.183,2.3,2.3,0,0,0,.086-.258,28.8,28.8,0,0,0,1.075-6.985c-.054.005-.108.007-.161.007a1.832,1.832,0,0,1-1.813-2.1,46.88,46.88,0,0,0,.173-13.028,6.247,6.247,0,0,0-3.362-1.117,1.832,1.832,0,0,1-1.514-.892l-1.6-2.685a15.613,15.613,0,0,0-6.63-1.352A21.376,21.376,0,0,0,277.555,31.1a45.782,45.782,0,0,0,0,14.1,1.836,1.836,0,0,1-1.589,2.049,1.972,1.972,0,0,1-.23.014q-.092,0-.183-.009a28.854,28.854,0,0,0,1.071,6.969,2.5,2.5,0,0,0,.094.277,1.849,1.849,0,0,1,.821-.193,1.8,1.8,0,0,1,.546.083,1.828,1.828,0,0,1,1.279,1.542c.1.927.191,1.828.276,2.69a5.128,5.128,0,0,0,1.421,3.065l.432.442a1.821,1.821,0,0,1,.523,1.281v4.974a1.827,1.827,0,0,1-1.54,1.809l-.361.061Z" transform="translate(-171.16 48.94)" fill="#2ee2fe"/>
      </g>
      <g transform="matrix(1, 0, 0, 1, 171.16, -48.94)" filter="url(#Path_502-2)">
        <path id="Path_502-2-2" data-name="Path 502-2" d="M290.99,104.678h-.1a143.258,143.258,0,0,1-30.309-3.279,7.819,7.819,0,0,1-6.126-8.156c.154-2.538.408-8.183.756-10.7.353-2.553,3.188-4.33,4.783-5,3.147-1.318,8.369-2.489,12.926-4.375,1.375-.569,2.793-1.156,4.2-1.708l.669-2.981a.832.832,0,0,1,.664-.638q.447-.083.9-.157V63.753l-.2-.2a7.773,7.773,0,0,1-2.164-4.665q-.072-.738-.153-1.509a2.588,2.588,0,0,1-.362.031,1.789,1.789,0,0,1-1.414-.557,4.94,4.94,0,0,1-.99-1.861,31.287,31.287,0,0,1-1.183-7.792,2.478,2.478,0,0,1,.871-2.024,2.541,2.541,0,0,1,1.042-.532c-.681-5.924-.589-10.984.27-14.676a.825.825,0,0,1,.235-.413c6.349-6.071,17.262-7.977,24.328-4.245a.833.833,0,0,1,.327.31l1.644,2.764a9.136,9.136,0,0,1,5.018,2.068.835.835,0,0,1,.334.561,49.534,49.534,0,0,1,.051,13.64,2.556,2.556,0,0,1,1.018.533,2.489,2.489,0,0,1,.859,2.014A31.353,31.353,0,0,1,307.7,55a4.975,4.975,0,0,1-.987,1.857,1.843,1.843,0,0,1-1.41.559,2.562,2.562,0,0,1-.362-.031c-.052.513-.1,1.016-.151,1.506a7.788,7.788,0,0,1-2.169,4.668l-.193.2v3.929c.3.05.6.1.9.157a.832.832,0,0,1,.664.638l.655,2.921c1.552.6,3.116,1.238,4.632,1.859,4.462,1.827,9.485,2.97,12.53,4.263,1.578.67,4.382,2.45,4.733,4.96.346,2.467.6,8.077.765,10.6a7.885,7.885,0,0,1-6.236,8.2A158.772,158.772,0,0,1,290.99,104.678Zm-11.7-35.3-.644,2.873a.837.837,0,0,1-.511.594c-1.523.591-3.077,1.235-4.579,1.856-4.44,1.837-10.048,3.119-13.277,4.476-1.142.48-3.166,1.753-3.418,3.585-.343,2.48-.593,8.082-.744,10.579a6.16,6.16,0,0,0,4.822,6.428,141.481,141.481,0,0,0,29.952,3.24h.1a157.008,157.008,0,0,0,29.747-3.366,6.213,6.213,0,0,0,4.909-6.462c-.159-2.48-.413-8.047-.753-10.474h0c-.252-1.8-2.255-3.073-3.385-3.552-3.125-1.325-8.316-2.5-12.86-4.36-1.643-.673-3.342-1.369-5.012-2.006a.829.829,0,0,1-.516-.6l-.631-2.816q-.51-.088-1.02-.169a.833.833,0,0,1-.7-.822V63.4a.826.826,0,0,1,.238-.583l.43-.44a6.115,6.115,0,0,0,1.7-3.666c.084-.857.177-1.754.274-2.672a.833.833,0,0,1,1.464-.45.778.778,0,0,0,.627.118,3.45,3.45,0,0,0,.611-1.214,29.789,29.789,0,0,0,1.113-7.381.809.809,0,0,0-.282-.675.864.864,0,0,0-.721-.2.832.832,0,0,1-.985-.94,47.929,47.929,0,0,0,.12-13.72,7.2,7.2,0,0,0-4.269-1.568.835.835,0,0,1-.685-.406l-1.749-2.939c-6.316-3.182-16.272-1.416-22.013,3.911-.8,3.671-.833,8.761-.077,14.745a.835.835,0,0,1-1,.919.857.857,0,0,0-.727.193.805.805,0,0,0-.286.679,29.716,29.716,0,0,0,1.112,7.378,3.311,3.311,0,0,0,.643,1.245.863.863,0,0,0,.6-.146.844.844,0,0,1,.884-.249.831.831,0,0,1,.581.7c.1.919.19,1.817.275,2.676a6.1,6.1,0,0,0,1.7,3.663l.434.444a.831.831,0,0,1,.237.582v4.974a.835.835,0,0,1-.7.822c-.346.058-.688.117-1.028.176Z" transform="translate(-171.16 48.94)" fill="#2ee2fe"/>
      </g>
      <g transform="matrix(1, 0, 0, 1, 171.16, -48.94)" filter="url(#Path_533)">
        <path id="Path_533-2" data-name="Path 533" d="M290.884,104.93a143.694,143.694,0,0,1-30.363-3.285,8.126,8.126,0,0,1-6.326-8.432c.032-.514.067-1.166.107-1.894.157-2.871.372-6.8.651-8.825.339-2.452,2.819-4.318,4.84-5.171,1.492-.625,3.441-1.219,5.505-1.846,2.38-.725,5.078-1.546,7.519-2.556,1.243-.515,2.644-1.094,4.04-1.642l.045-.051.631-2.811a1.085,1.085,0,0,1,.866-.836c.216-.04.433-.078.649-.115l.039-.047V63.884l-.022-.052-.1-.1a8.059,8.059,0,0,1-2.241-4.827L276.6,57.7l-.053-.041c-.029,0-.188.006-.188.006a2.072,2.072,0,0,1-1.476-.624,5.213,5.213,0,0,1-1.073-2,31.622,31.622,0,0,1-1.191-7.853,2.755,2.755,0,0,1,.962-2.216,2.853,2.853,0,0,1,.878-.5l.046-.067c-.651-5.835-.545-10.844.306-14.5a1.1,1.1,0,0,1,.306-.539,23.705,23.705,0,0,1,16.031-6.228l.393,0a18.389,18.389,0,0,1,8.188,1.934,1.134,1.134,0,0,1,.439.411l1.559,2.62.064.04a9.329,9.329,0,0,1,5.009,2.128,1.065,1.065,0,0,1,.4.7,49.522,49.522,0,0,1,.086,13.448l.045.067a2.839,2.839,0,0,1,.851.5,2.767,2.767,0,0,1,.949,2.226,31.562,31.562,0,0,1-1.191,7.838A5.277,5.277,0,0,1,306.9,57a2.12,2.12,0,0,1-1.526.66l-.17-.006-.053.041-.121,1.208A8.07,8.07,0,0,1,302.8,63.72l-.1.1-.023.059v3.536l.039.046.646.115a1.084,1.084,0,0,1,.869.841l.615,2.745.045.052c1.458.564,2.951,1.175,4.289,1.723l.182.075c2.352.963,4.919,1.751,7.185,2.447,2.041.627,3.97,1.22,5.443,1.845,2,.849,4.453,2.7,4.794,5.133.268,1.916.483,5.692.639,8.45.048.837.09,1.585.127,2.167a8.185,8.185,0,0,1-6.435,8.466,159.3,159.3,0,0,1-30.128,3.407ZM278.892,72.305a1.089,1.089,0,0,1-.669.777c-1.522.59-3.07,1.23-4.567,1.85-2.384.987-5.133,1.825-7.559,2.564-2.139.652-4.159,1.268-5.628,1.887-1.138.479-3.126,1.737-3.36,3.413-.268,1.941-.479,5.815-.634,8.644-.04.735-.076,1.391-.108,1.914a5.865,5.865,0,0,0,4.621,6.163,141.5,141.5,0,0,0,29.9,3.234,157.345,157.345,0,0,0,29.791-3.358,5.994,5.994,0,0,0,4.711-6.2c-.038-.583-.081-1.338-.129-2.182-.154-2.715-.364-6.432-.622-8.272-.233-1.659-2.276-2.936-3.325-3.38-1.422-.6-3.344-1.193-5.379-1.817-2.324-.712-4.957-1.519-7.385-2.513-1.676-.686-3.353-1.373-5.005-2a1.08,1.08,0,0,1-.677-.781l-.584-2.605-.049-.047c-.269-.046-.538-.091-.808-.133a1.092,1.092,0,0,1-.917-1.079V63.41a1.082,1.082,0,0,1,.31-.762l.432-.44a5.881,5.881,0,0,0,1.628-3.511c.084-.858.178-1.756.274-2.675a1.085,1.085,0,0,1,1.082-.975l.113.006a1.084,1.084,0,0,1,.673.329.474.474,0,0,0,.3.1l.051-.018a3.139,3.139,0,0,0,.494-1.023,29.5,29.5,0,0,0,1.107-7.32.579.579,0,0,0-.194-.486.611.611,0,0,0-.4-.15.541.541,0,0,0-.1.01l-.208.02a1.093,1.093,0,0,1-1.088-1.1l.012-.163a47.478,47.478,0,0,0,.138-13.494l-.042-.07a7.016,7.016,0,0,0-4-1.423,1.087,1.087,0,0,1-.9-.526l-1.7-2.858-.029-.027a16.246,16.246,0,0,0-6.841-1.521l-.284,0a22.083,22.083,0,0,0-14.441,5.367l-.02.033c-.777,3.634-.795,8.664-.051,14.558a1.089,1.089,0,0,1-.946,1.216l-.136.008a1.111,1.111,0,0,1-.215-.021.581.581,0,0,0-.124-.014.607.607,0,0,0-.39.146.56.56,0,0,0-.2.463,29.509,29.509,0,0,0,1.106,7.341,3.062,3.062,0,0,0,.527,1.061.594.594,0,0,0,.34-.14,1.046,1.046,0,0,1,.747-.308h.012a1.1,1.1,0,0,1,1.08.952c.1.933.192,1.831.277,2.692a5.877,5.877,0,0,0,1.627,3.51l.433.442a1.09,1.09,0,0,1,.311.762v4.974a1.092,1.092,0,0,1-.921,1.075c-.268.042-.536.087-.8.132l-.05.048Z" transform="translate(-171.16 48.94)" fill="#93f4f9"/>
      </g>
      <g transform="matrix(1, 0, 0, 1, 171.16, -48.94)" filter="url(#Path_503-2)">
        <path id="Path_503-2-2" data-name="Path 503-2" d="M290.885,104.23a142.7,142.7,0,0,1-30.214-3.269,7.375,7.375,0,0,1-5.777-7.7c.152-2.527.406-8.161.753-10.671.326-2.361,2.945-4,4.419-4.622,3.169-1.327,8.439-2.506,13.019-4.4,1.287-.533,2.745-1.136,4.191-1.7l.271-.317.669-2.981a.387.387,0,0,1,.31-.3q.445-.083.891-.156l.37-.438V63.747l-.126-.31-.2-.2a7.336,7.336,0,0,1-2.04-4.4c-.048-.492-.1-1-.152-1.511l-.51-.393a2.334,2.334,0,0,1-.3.025,1.362,1.362,0,0,1-1.071-.409,4.513,4.513,0,0,1-.9-1.7,30.835,30.835,0,0,1-1.165-7.682,2.041,2.041,0,0,1,.715-1.666,2.112,2.112,0,0,1,.861-.439l.335-.482c-.675-5.869-.584-10.891.262-14.523a.388.388,0,0,1,.111-.194,23.045,23.045,0,0,1,15.635-6.031,17.584,17.584,0,0,1,8.177,1.858.4.4,0,0,1,.153.146l1.644,2.763.347.216a8.669,8.669,0,0,1,4.791,1.984.393.393,0,0,1,.156.262,48.84,48.84,0,0,1,.051,13.522l.328.488a2.108,2.108,0,0,1,.84.44,2.046,2.046,0,0,1,.706,1.657,30.935,30.935,0,0,1-1.165,7.684,4.546,4.546,0,0,1-.9,1.694,1.406,1.406,0,0,1-1.081.409A2.14,2.14,0,0,1,305,56.93l-.51.393q-.078.771-.151,1.509a7.344,7.344,0,0,1-2.044,4.4l-.193.2-.127.311v3.929l.37.438q.444.075.89.156a.388.388,0,0,1,.31.3l.655,2.921.273.318c1.572.606,3.193,1.271,4.623,1.856,4.488,1.838,9.552,2.987,12.619,4.289,1.458.619,4.049,2.264,4.374,4.585.344,2.459.6,8.056.761,10.565a7.439,7.439,0,0,1-5.882,7.737,158.283,158.283,0,0,1-29.994,3.391ZM277.537,55.754a.326.326,0,0,1,.111.017.389.389,0,0,1,.275.323c.1.918.19,1.814.275,2.672a6.553,6.553,0,0,0,1.822,3.929l.434.444a.392.392,0,0,1,.111.272v4.974a.389.389,0,0,1-.328.384c-.342.054-.684.11-1.026.17l-.358.34-.644,2.873a.391.391,0,0,1-.239.277c-1.526.593-3.079,1.235-4.581,1.857-4.425,1.831-9.983,3.1-13.191,4.452-1.262.531-3.5,1.938-3.782,3.962-.343,2.486-.595,8.1-.747,10.612a6.6,6.6,0,0,0,5.169,6.889,141.915,141.915,0,0,0,30.048,3.251h.1a157.546,157.546,0,0,0,29.837-3.374,6.659,6.659,0,0,0,5.264-6.925c-.16-2.489-.414-8.067-.756-10.508-.278-1.988-2.5-3.4-3.744-3.927-3.1-1.316-8.25-2.482-12.772-4.334-1.654-.677-3.351-1.372-5.022-2.009a.388.388,0,0,1-.242-.279l-.631-2.815-.358-.34c-.342-.059-.683-.116-1.026-.17a.387.387,0,0,1-.327-.384V63.41a.383.383,0,0,1,.111-.272l.431-.44a6.557,6.557,0,0,0,1.825-3.933c.084-.856.177-1.752.274-2.669a.388.388,0,0,1,.683-.21,1.174,1.174,0,0,0,.817.3.741.741,0,0,0,.358-.079l.129-.1a3.887,3.887,0,0,0,.7-1.375,30.194,30.194,0,0,0,1.132-7.49,1.26,1.26,0,0,0-.436-1.033,1.314,1.314,0,0,0-.858-.32,1.234,1.234,0,0,0-.236.022.423.423,0,0,1-.079.008.39.39,0,0,1-.388-.392.328.328,0,0,1,0-.054A48.278,48.278,0,0,0,305.8,31.53l-.184-.306a7.67,7.67,0,0,0-4.508-1.649.389.389,0,0,1-.32-.189l-1.752-2.939-.182-.17a16.837,16.837,0,0,0-7.536-1.632,22.772,22.772,0,0,0-14.978,5.615l-.132.23c-.816,3.719-.845,8.869-.084,14.9a.389.389,0,0,1-.337.433l-.05,0a.427.427,0,0,1-.081-.008,1.221,1.221,0,0,0-.255-.027,1.307,1.307,0,0,0-.849.315,1.252,1.252,0,0,0-.442,1.037,30.085,30.085,0,0,0,1.131,7.489,3.758,3.758,0,0,0,.735,1.408l.157.113a.652.652,0,0,0,.262.048,1.275,1.275,0,0,0,.844-.308A.4.4,0,0,1,277.537,55.754Z" transform="translate(-171.16 48.94)" fill="#93f4f9"/>
      </g>
      <g transform="matrix(1, 0, 0, 1, 171.16, -48.94)" filter="url(#Path_534)">
        <path id="Path_534-2" data-name="Path 534" d="M290.887,104.355a143.094,143.094,0,0,1-30.24-3.271,7.458,7.458,0,0,1-5.874-7.826c.032-.521.068-1.178.108-1.913.154-2.855.366-6.765.646-8.766.308-2.226,2.581-3.923,4.434-4.7,1.48-.62,3.429-1.212,5.492-1.84,2.4-.73,5.122-1.558,7.586-2.579l.105-.043c1.256-.521,2.67-1.105,4.089-1.66l.223-.282.005-.038.637-2.891a.51.51,0,0,1,.411-.391c.27-.05.545-.1.82-.144l.042-.024.277-.329.017-.046V63.757l-.116-.26-.173-.157a7.5,7.5,0,0,1-2.077-4.473l-.144-1.429-.026-.048-.38-.292-.057-.015c-.077.009-.155.014-.231.016h-.018a1.542,1.542,0,0,1-1.131-.432,4.632,4.632,0,0,1-.94-1.769,30.976,30.976,0,0,1-1.168-7.71,2.175,2.175,0,0,1,.765-1.767,2.252,2.252,0,0,1,.836-.445l.045-.031.251-.362.012-.048c-.668-5.854-.573-10.864.273-14.493l.138-.249a23.126,23.126,0,0,1,15.633-6.071l.4,0a17.792,17.792,0,0,1,7.92,1.871l.209.195,1.643,2.762.307.175h.039a8.636,8.636,0,0,1,4.781,2.006l.184.318a48.975,48.975,0,0,1,.062,13.492l.012.049.246.366.043.031a2.233,2.233,0,0,1,.815.446,2.179,2.179,0,0,1,.749,1.758,31.023,31.023,0,0,1-1.168,7.7,4.6,4.6,0,0,1-.917,1.739,1.547,1.547,0,0,1-1.1.462l-.117,0a1.719,1.719,0,0,1-.191-.014l-.056.015-.379.292-.027.048-.144,1.43a7.472,7.472,0,0,1-2.077,4.47l-.191.2-.1.273.008,3.806.018.046.278.33.042.024c.274.046.548.1.823.145a.513.513,0,0,1,.408.386l.644,2.877.038.073.181.2.076.053c1.441.545,3.016,1.189,4.412,1.759,2.48,1.016,5.079,1.815,7.372,2.519,2.04.627,3.968,1.219,5.436,1.841.406.173,3.983,1.77,4.39,4.663.267,1.913.481,5.7.637,8.461.046.816.088,1.545.124,2.114a7.6,7.6,0,0,1-5.976,7.864A158.653,158.653,0,0,1,291,104.351ZM278.33,72.185a.5.5,0,0,1-.313.365c-1.535.6-3.119,1.251-4.523,1.832-2.42,1-5.154,1.836-7.567,2.573-2.131.651-4.145,1.266-5.618,1.885-1.276.537-3.5,1.959-3.768,3.886-.275,1.994-.5,6.1-.646,8.809l-.1,1.794a6.439,6.439,0,0,0,5.073,6.761,141.943,141.943,0,0,0,30.022,3.247,157.854,157.854,0,0,0,29.91-3.371,6.572,6.572,0,0,0,5.168-6.8c-.037-.578-.079-1.321-.126-2.153-.155-2.735-.367-6.479-.63-8.345-.266-1.9-2.469-3.315-3.729-3.849-1.431-.607-3.349-1.2-5.38-1.819-2.308-.708-4.924-1.51-7.332-2.5-1.664-.681-3.355-1.373-5.02-2.009a.5.5,0,0,1-.318-.371l-.617-2.752-.021-.038-.273-.259-.038-.019q-.482-.083-.965-.16a.509.509,0,0,1-.431-.5V63.416l.146-.358.431-.44a6.457,6.457,0,0,0,1.788-3.859c.084-.858.178-1.754.275-2.671a.506.506,0,0,1,.366-.436l.113-.015a.521.521,0,0,1,.427.189,1.058,1.058,0,0,0,.69.247h0a.69.69,0,0,0,.33-.068l.108-.092a3.759,3.759,0,0,0,.653-1.3,30.108,30.108,0,0,0,1.128-7.461,1.144,1.144,0,0,0-.392-.942,1.2,1.2,0,0,0-.78-.292,1.174,1.174,0,0,0-.213.021l-.093-.394-.009.4a.51.51,0,0,1-.5-.6,48.028,48.028,0,0,0,.12-13.792l-.168-.26-.028-.018A7.556,7.556,0,0,0,301.1,29.7a.51.51,0,0,1-.429-.259l-1.743-2.93-.16-.143a16.8,16.8,0,0,0-7.154-1.606l-.29,0a22.665,22.665,0,0,0-14.911,5.59l-.1.192c-.8,3.669-.828,8.806-.069,14.82a.505.505,0,0,1-.159.444l-.342.136a2.385,2.385,0,0,0-.347-.035,1.187,1.187,0,0,0-.765.286,1.127,1.127,0,0,0-.4.932A30.154,30.154,0,0,0,275.36,54.6a3.653,3.653,0,0,0,.715,1.362l.13.087a.644.644,0,0,0,.173.025,1.178,1.178,0,0,0,.8-.3.506.506,0,0,1,.345-.146l.122.01a.52.52,0,0,1,.391.39c.108.965.2,1.862.283,2.72a6.451,6.451,0,0,0,1.788,3.861l.434.443.145.344v4.988a.508.508,0,0,1-.432.5c-.321.05-.643.1-.964.158l-.038.02-.273.259-.021.038Z" transform="translate(-171.16 48.94)" fill="#e4f4f4"/>
      </g>
      <g transform="matrix(1, 0, 0, 1, 171.16, -48.94)" filter="url(#Path_504-2)">
        <path id="Path_504-2-2" data-name="Path 504-2" d="M290.887,103.955a142.457,142.457,0,0,1-30.154-3.262,7.1,7.1,0,0,1-5.56-7.408c.152-2.52.4-8.146.751-10.65.31-2.24,2.793-3.8,4.192-4.386,3.183-1.333,8.485-2.517,13.077-4.419,1.28-.53,2.73-1.131,4.186-1.7l.11-.078.271-.317.06-.12.669-2.981a.106.106,0,0,1,.088-.084q.444-.084.887-.156l.166-.094.37-.438.066-.179V63.757l-.021-.1-.126-.31-.059-.089-.2-.2a7.05,7.05,0,0,1-1.962-4.23c-.049-.493-.1-1-.153-1.512l-.107-.192-.51-.393-.212-.054a2.105,2.105,0,0,1-.262.022,1.089,1.089,0,0,1-.859-.315,4.241,4.241,0,0,1-.837-1.592,30.573,30.573,0,0,1-1.154-7.614,1.771,1.771,0,0,1,.624-1.451,1.817,1.817,0,0,1,.746-.382l.162-.111.335-.482.048-.19c-.671-5.837-.583-10.827.257-14.429a.112.112,0,0,1,.032-.057,22.758,22.758,0,0,1,15.443-5.953,17.291,17.291,0,0,1,8.047,1.826.111.111,0,0,1,.044.042l1.644,2.762.092.094.347.216.126.041a8.425,8.425,0,0,1,4.649,1.932.118.118,0,0,1,.045.075,48.614,48.614,0,0,1,.051,13.448l.045.192.328.488.16.113a1.833,1.833,0,0,1,.729.382,1.771,1.771,0,0,1,.61,1.434,30.713,30.713,0,0,1-1.153,7.614,4.26,4.26,0,0,1-.839,1.592,1.142,1.142,0,0,1-.876.315,2.189,2.189,0,0,1-.244-.022l-.211.054-.51.393-.107.192c-.052.514-.1,1.018-.152,1.51a7.052,7.052,0,0,1-1.966,4.233l-.193.2-.058.089-.127.31-.021.1v3.929l.066.179.37.438.166.094c.294.049.59.1.886.156a.112.112,0,0,1,.091.086l.655,2.92.061.12.273.317.111.078c1.551.6,3.153,1.255,4.567,1.833,4.548,1.863,9.632,3.014,12.725,4.326,1.383.587,3.841,2.148,4.149,4.35.344,2.456.6,8.047.759,10.545a7.158,7.158,0,0,1-5.66,7.447,157.958,157.958,0,0,1-29.939,3.385ZM277.564,56.037a.119.119,0,0,1,.085.088c.1.919.19,1.814.274,2.671a6.824,6.824,0,0,0,1.9,4.1l.434.444a.119.119,0,0,1,.032.078v4.974a.111.111,0,0,1-.093.109q-.516.081-1.03.17l-.144.073-.358.341-.08.141L277.94,72.1a.111.111,0,0,1-.067.079c-1.558.6-3.167,1.271-4.587,1.859-4.4,1.823-9.938,3.093-13.132,4.436-1.338.563-3.714,2.053-4.009,4.2-.345,2.5-.6,8.117-.749,10.633a6.877,6.877,0,0,0,5.387,7.176,142.217,142.217,0,0,0,30.107,3.257h.1a157.881,157.881,0,0,0,29.893-3.38,6.936,6.936,0,0,0,5.485-7.215c-.161-2.5-.415-8.081-.759-10.529-.3-2.107-2.645-3.6-3.969-4.162-3.091-1.311-8.21-2.471-12.718-4.318-1.647-.674-3.351-1.372-5.028-2.012a.106.106,0,0,1-.069-.08l-.631-2.815-.08-.141-.358-.341-.144-.073q-.516-.088-1.03-.17a.109.109,0,0,1-.093-.109V63.416a.106.106,0,0,1,.032-.078l.431-.44a6.847,6.847,0,0,0,1.9-4.1c.084-.856.177-1.751.273-2.667a.107.107,0,0,1,.078-.094h.026a.1.1,0,0,1,.091.036,1.459,1.459,0,0,0,1.029.4,1.027,1.027,0,0,0,.489-.112l.17-.131a4.082,4.082,0,0,0,.793-1.51,30.464,30.464,0,0,0,1.143-7.559,1.53,1.53,0,0,0-.531-1.255,1.6,1.6,0,0,0-1.04-.388,1.525,1.525,0,0,0-.287.027h-.019a.116.116,0,0,1-.086-.029.11.11,0,0,1-.032-.1,48.554,48.554,0,0,0,.123-13.919l-.038-.108-.184-.305L305.772,31a7.917,7.917,0,0,0-4.658-1.7.106.106,0,0,1-.092-.054l-1.749-2.939-.049-.061-.182-.17-.062-.049a17.124,17.124,0,0,0-7.661-1.662,23.059,23.059,0,0,0-15.167,5.689l-.052.065-.132.23-.031.079c-.823,3.75-.853,8.933-.088,14.99a.117.117,0,0,1-.035.1.123.123,0,0,1-.076.029,1.652,1.652,0,0,0-.336-.035,1.588,1.588,0,0,0-1.03.382,1.52,1.52,0,0,0-.539,1.261,30.37,30.37,0,0,0,1.143,7.559,4.023,4.023,0,0,0,.793,1.51l.045.041.157.114.053.029a.926.926,0,0,0,.372.071,1.565,1.565,0,0,0,1.052-.4.13.13,0,0,1,.094-.043A.055.055,0,0,1,277.564,56.037Z" transform="translate(-171.16 48.94)" fill="#e4f4f4"/>
      </g>
    </g>
  </g>
</svg>
